<?xml version="1.0" encoding="utf-8"?>
<!-- Generator: Adobe Illustrator 16.0.0, SVG Export Plug-In . SVG Version: 6.00 Build 0)  -->
<!DOCTYPE svg PUBLIC "-//W3C//DTD SVG 1.1//EN" "http://www.w3.org/Graphics/SVG/1.1/DTD/svg11.dtd">
<svg version="1.1" id="Layer_1" xmlns="http://www.w3.org/2000/svg" xmlns:xlink="http://www.w3.org/1999/xlink" x="0px" y="0px"
	 width="428.571px" height="352.218px" viewBox="0 0 428.571 352.218" enable-background="new 0 0 428.571 352.218"
	 xml:space="preserve">
<g id="Layer_2" display="none">
	<rect x="-47.348" y="-64.866" display="inline" fill="#010101" width="746.427" height="758.279"/>
</g>
<rect x="-17.837" y="-10.449" display="none" fill="#904399" width="465.333" height="377.333"/>
<g id="Layer_3">
	<g>
		<g>
			<path fill="#FFFFFF" d="M8.18,129.716c0.051,0.305,0.104,0.615,0.146,0.927c-0.067-0.485-0.134-0.967-0.198-1.449
				c0.17,1.291,0.229,2.702,0.731,3.928c0.566,1.381,1.169,2.471,2.502,3.256c1.256,0.735,2.792,0.936,4.2,0.549
				c1.363-0.375,2.544-1.284,3.254-2.504c0.663-1.134,1.071-2.922,0.55-4.197c-0.264-0.647-0.381-1.32-0.476-2.011
				c0.064,0.483,0.131,0.968,0.197,1.447c-0.125-0.948-0.226-1.901-0.403-2.841c-0.547-2.921-4.024-4.543-6.699-3.806
				c-1.362,0.377-2.542,1.284-3.26,2.506C7.941,126.862,7.902,128.229,8.18,129.716L8.18,129.716z"/>
		</g>
	</g>
	<g>
		<g>
			<path fill="#FFFFFF" d="M49.069,110.902c-0.007,0.906-0.104,1.814-0.114,2.725c-0.025,2.972,2.501,5.447,5.447,5.447
				c2.995,0,5.421-2.476,5.448-5.447c0.012-0.91,0.109-1.818,0.115-2.725c0.025-2.97-2.499-5.447-5.447-5.447
				C51.529,105.455,49.097,107.933,49.069,110.902L49.069,110.902z"/>
		</g>
	</g>
	<g>
		<g>
			<path fill="#FFFFFF" d="M304.78,76.178c-5.98-1.367-11.99-1.272-18.092-1.253c-7.021,0.021-7.021,10.918,0,10.894
				c5.086-0.015,10.209-0.276,15.199,0.865C308.731,88.249,311.634,77.747,304.78,76.178L304.78,76.178z"/>
		</g>
	</g>
	<g>
		<g>
			<path fill="#FFFFFF" d="M287.163,77.638c-0.557-0.289-1.096-0.623-1.656-0.909c-1.338-0.681-2.727-0.955-4.197-0.551
				c-1.369,0.375-2.549,1.287-3.26,2.503c-1.436,2.454-0.686,6.105,1.953,7.454c0.559,0.286,1.1,0.62,1.666,0.909
				c1.336,0.679,2.723,0.954,4.193,0.549c1.365-0.374,2.549-1.287,3.258-2.506C290.558,82.639,289.806,78.984,287.163,77.638
				L287.163,77.638z"/>
		</g>
	</g>
	<g>
		<g>
			<path fill="#FFFFFF" d="M312.563,69.777c0.006,0.133,0.023,0.263,0.035,0.392c0.016-0.914,0.324-1.667,0.943-2.258
				c-0.777,0.949,0.971-0.614-0.084,0.136c-1.039,0.743-2.09,1.435-3.098,2.231c-1.146,0.909-1.814,2.238-2.338,3.555
				c-0.166,0.411-0.279,0.812-0.383,1.24c-0.066,0.28-0.131,0.563-0.197,0.842c-0.512,1.521,0.313,0.799,2.465-2.158
				c-2.826,0.891-4.609,3.758-3.805,6.701c0.764,2.78,3.869,4.696,6.707,3.805c2.656-0.841,4.033-2.532,5.027-5.057
				c0.209-0.525,0.283-1.118,0.412-1.664c0.184-0.6,0.16-0.557-0.066,0.131c-0.713,1.275,0.461-0.076-0.588,0.688
				c2.969-2.144,6.281-4.352,5.873-8.584c-0.285-2.953-2.266-5.448-5.445-5.448C315.259,64.33,312.28,66.819,312.563,69.777
				L312.563,69.777z"/>
		</g>
	</g>
	<g>
		<g>
			<path fill="#FFFFFF" d="M320.653,60.631c0.393,0.522,0.404,0.539,0.047,0.044c-0.244-0.359-0.455-0.741-0.682-1.115
				c-0.365-0.63-0.701-1.283-1.045-1.92c-0.883-1.607-2-3.136-3.311-4.428c-2.115-2.081-5.598-2.105-7.705,0
				c-2.09,2.091-2.119,5.623,0,7.708c0.229,0.22,0.467,0.454,0.684,0.698c-0.797-0.857,0.119,0.192,0.236,0.374
				c0.414,0.616,0.754,1.272,1.105,1.92c0.865,1.593,1.805,3.022,2.973,4.424c1.885,2.291,5.742,1.947,7.697,0
				C322.899,66.087,322.548,62.916,320.653,60.631L320.653,60.631z"/>
		</g>
	</g>
	<g>
		<g>
			<path fill="#FFFFFF" d="M308.476,64.936c0,1.515,0,3.026,0,4.54c0,2.968,2.486,5.449,5.451,5.449s5.449-2.481,5.449-5.449
				c0-1.514,0-3.025,0-4.54c0-2.966-2.484-5.447-5.449-5.447S308.476,61.969,308.476,64.936L308.476,64.936z"/>
		</g>
	</g>
	<g>
		<g>
			<path fill="#FFFFFF" d="M304.403,50.103c1.385-0.213,2.77-0.602,4.16-0.74c2.08-0.212,4.275-0.078,6.365-0.088
				c7.023-0.032,7.023-10.93,0-10.897c-2.113,0.01-4.248,0.008-6.365,0.089c-2.373,0.086-4.717,0.772-7.055,1.129
				c-2.939,0.448-4.518,4.096-3.803,6.7C298.563,49.408,301.47,50.544,304.403,50.103L304.403,50.103z"/>
		</g>
	</g>
	<g>
		<g>
			<path fill="#FFFFFF" d="M306.079,40.792c-2.221-3.504-4.926-5.465-8.932-6.57c-4.602-1.271-9.973-2.003-14.729-2.199
				c-7.027-0.296-7.006,10.604,0,10.895c2.766,0.117,5.467,0.708,8.197,1.179c2.148,0.375,4.793,0.211,6.047,2.195
				C300.409,52.208,309.841,46.749,306.079,40.792L306.079,40.792z"/>
		</g>
	</g>
	<g>
		<g>
			<path fill="#FFFFFF" d="M271.933,40.573c0.402,0.018,2.227,0.731,3.164,1.018c0.49-3.57,0.965-7.136,1.455-10.703
				c1.238,0.086,0.684,0.035-0.139-0.479c-0.617-0.385-1.213-0.757-1.881-1.049c-1.387-0.607-2.527-0.854-4.029-1.004
				c-0.121-0.01-1.869-0.346-1.043,0.022c-2.721-1.204-5.836-0.819-7.453,1.956c-1.379,2.345-0.766,6.247,1.949,7.452
				c1.59,0.704,2.863,1.099,4.584,1.28c0.43,0.053,0.871,0.09,1.303,0.124c-0.193-0.018-0.949-0.544,0.1,0.026
				c2.229,1.206,3.986,2.383,6.609,2.565c2.389,0.164,4.633-1.783,5.246-3.999c0.807-2.921-0.971-5.838-3.805-6.701
				c-2.076-0.633-3.844-1.297-6.061-1.407c-2.975-0.147-5.447,2.592-5.447,5.449C266.485,38.207,268.958,40.423,271.933,40.573
				L271.933,40.573z"/>
		</g>
	</g>
	<g>
		<g>
			<path fill="#FFFFFF" d="M252.565,13.75c-4.326,0.165-8.525-0.535-12.869,0.013c-5.135,0.646-10.201,0.977-15.269,2.17
				c-9.737,2.3-19.432,6.437-29.514,6.67c-7.013,0.159-7.033,11.055,0,10.895c10.046-0.23,19.627-3.709,29.257-6.247
				c4.735-1.248,9.311-1.854,14.153-2.408c4.83-0.553,9.426-0.012,14.242-0.196C259.567,24.374,259.593,13.478,252.565,13.75
				L252.565,13.75z"/>
		</g>
	</g>
	<g>
		<g>
			<path fill="#FFFFFF" d="M194.994,25.593c7.02,0,7.02-10.898,0-10.898C187.961,14.695,187.961,25.593,194.994,25.593
				L194.994,25.593z"/>
		</g>
	</g>
	<g>
		<g>
			<path fill="#FFFFFF" d="M176.609,14.475c-0.947,0.781-1.589,1.587-2.247,2.628c-0.327,0.688-0.601,1.395-0.829,2.116
				c0.85-0.604,0.703-0.645-0.438-0.127c-3.5,1.182-6.668,3.147-10.122,4.421c-3.466,1.281-6.82,2.889-10.359,3.958
				c-2.993,0.9-5.884,1.758-8.087,4.104c-4.801,5.116,2.89,12.838,7.706,7.705c1.313-1.404,4.775-1.783,6.589-2.469
				c3.688-1.396,7.384-2.846,11.012-4.4c2.991-1.283,6.617-2.437,9.41-4.082c1.315-0.773,2.763-1.769,3.504-3.167
				c0.508-0.966,0.968-2.492,1.57-2.984C189.747,17.715,181.992,10.048,176.609,14.475L176.609,14.475z"/>
		</g>
	</g>
	<g>
		<g>
			<path fill="#FFFFFF" d="M153.678,41.328c7.027,0,7.027-10.894,0-10.894C146.652,30.435,146.652,41.328,153.678,41.328
				L153.678,41.328z"/>
		</g>
	</g>
	<g>
		<g>
			<path fill="#FFFFFF" d="M149.892,31.491c-2.961,0.303-5.478,1.069-8.195,2.247c-2.06,0.892-4.019,1.728-6.266,2.039
				c-2.947,0.401-4.512,4.125-3.808,6.701c0.866,3.142,3.767,4.208,6.703,3.803c4.077-0.559,7.526-3.48,11.565-3.892
				c2.954-0.302,5.449-2.25,5.449-5.449C155.341,34.199,152.855,31.19,149.892,31.491L149.892,31.491z"/>
		</g>
	</g>
	<g>
		<g>
			<path fill="#FFFFFF" d="M176.367,26.223c0.62,1.452,2.259,2.492,3.708,2.938c1.278,0.394,2.517,0.293,3.806,0.021
				c1.34-0.286,2.572-1.346,3.253-2.503c0.736-1.261,0.938-2.796,0.551-4.197c-0.376-1.363-1.286-2.545-2.505-3.257
				c-1.319-0.773-2.732-0.86-4.197-0.55c-0.095,0.025-0.188,0.041-0.28,0.049c0.481-0.068,0.966-0.131,1.448-0.197
				c-0.132,0.009-0.263,0.004-0.395-0.007c0.483,0.064,0.966,0.128,1.449,0.195c-0.077-0.011-0.157-0.029-0.232-0.063
				c0.434,0.188,0.864,0.368,1.298,0.553c-0.068-0.025-0.135-0.063-0.2-0.102c0.368,0.284,0.737,0.567,1.104,0.851
				c-0.062-0.041-0.11-0.089-0.157-0.145c0.284,0.369,0.567,0.735,0.854,1.103c-0.045-0.06-0.079-0.12-0.098-0.187
				c-0.527-1.225-2.039-2.168-3.259-2.507c-1.408-0.384-2.938-0.187-4.201,0.549c-1.214,0.717-2.126,1.894-2.503,3.257
				c-0.063,0.484-0.128,0.966-0.19,1.45C175.623,24.456,175.875,25.374,176.367,26.223L176.367,26.223z"/>
		</g>
	</g>
</g>
<text transform="matrix(0.8577 0.5141 -0.5141 0.8577 28.1118 255.3818)" display="none" fill="#FFFFFF" enable-background="new    " font-family="'GillSans-UltraBoldCondensed'" font-size="55.2504">Parallel</text>
<text transform="matrix(0.8226 -0.5686 0.5686 0.8226 245.2041 352.9063)" display="none" fill="#FFFFFF" enable-background="new    " font-family="'GillSans-UltraBoldCondensed'" font-size="55.2457">Universe</text>
<g>
	<path fill="#FFFFFF" d="M201.821,315.426c-0.407-0.075-0.808-0.181-1.215-0.208c-4.998-0.32-9.817-1.417-14.451-3.31
		c-2.64-1.076-5.124-2.441-7.529-3.955c-3.756-2.359-7.268-5.051-10.618-7.953c-3.567-3.085-7.075-6.241-10.626-9.348
		c-1.604-1.399-3.241-2.76-4.871-4.13c-0.213-0.181-0.463-0.319-0.75-0.516c-0.131,0.242-0.245,0.413-0.322,0.595
		c-2.56,6.022-7.104,9.867-13.181,12.037c-2.297,0.817-4.675,1.257-7.09,1.493c-4.708,0.458-9.424,0.381-14.135,0.095
		c-6.165-0.378-12.341-0.673-18.525-0.528c-3.006,0.068-6.002,0.251-8.995,0.57c-1.748,0.188-3.498,0.218-5.237-0.122
		c-0.868-0.17-1.694-0.448-2.439-0.935c-1.499-0.973-2.048-2.371-1.624-4.106c0.21-0.859,0.588-1.647,1.051-2.395
		c0.881-1.436,1.958-2.717,3.269-3.77c1.163-0.943,2.397-1.809,3.632-2.663c1.199-0.831,2.441-1.607,3.669-2.398
		c2.829-1.847,4.987-4.289,6.489-7.309c0.686-1.386,1.356-2.778,2.066-4.146c0.52-1.001,1.06-1.994,1.662-2.939
		c0.49-0.771,1.093-1.464,1.698-2.267c-0.098-0.125-0.201-0.291-0.34-0.427c-4.986-4.873-8.798-10.583-11.829-16.821
		c-2.147-4.426-4.157-8.924-6.253-13.377c-1.048-2.229-2.108-4.451-3.238-6.64c-2.825-5.473-7.003-9.619-12.452-12.476
		c-2.328-1.22-4.69-2.378-7.066-3.501c-3.288-1.561-6.466-3.299-9.421-5.433c-2.167-1.57-4.197-3.305-6.117-5.164
		c-1.795-1.736-3.209-3.734-4.313-5.957c-1.138-2.286-2.009-4.675-2.739-7.116c-1.329-4.439-2.546-8.905-3.385-13.465
		c-0.62-3.371-0.959-6.774-1.37-10.173c-0.181-1.465-0.128-2.899-0.059-4.35c0.007-0.209,0-0.416,0-0.655
		c-0.328-0.363-0.68-0.724-1-1.104c-1.774-2.11-3.553-4.216-5.309-6.338c-1.598-1.931-3.196-3.859-4.992-5.61
		c-2.289-2.234-4.812-4.129-7.791-5.367c-0.412-0.171-0.782-0.442-1.213-0.688c-0.219,0.166-0.448,0.339-0.676,0.514
		c-2.554,1.928-5.71,1.65-8.023-0.767c-1.045-1.096-1.579-2.436-1.782-3.922c-0.247-1.765-0.063-3.502,0.34-5.217
		c0.461-1.954,1.142-3.841,2.022-5.646c0.585-1.205,1.293-2.338,2.264-3.287c1.147-1.124,2.491-1.78,4.136-1.789
		c1.317-0.005,2.458,0.435,3.462,1.238c1.846,1.472,2.907,3.406,3.288,5.724c0.023,0.121,0.023,0.248,0.042,0.375
		c0.022,0.12,0.053,0.238,0.095,0.44c0.248,0.066,0.517,0.162,0.793,0.212c2.462,0.438,4.727,1.392,6.815,2.729
		c1.51,0.966,3.003,1.985,4.379,3.124c2.313,1.916,4.56,3.92,6.781,5.942c2.59,2.366,5.104,4.807,7.678,7.193
		c1.895,1.763,3.866,3.443,5.966,4.963c1.63,1.176,3.321,2.244,5.158,3.068c1.804,0.808,3.666,1.37,5.665,1.435
		c2.43,0.082,4.614-0.607,6.578-2.017c0.946-0.677,1.849-1.414,2.78-2.119c0.411-0.313,0.735-0.662,0.836-1.193
		c0.054-0.283,0.171-0.563,0.292-0.823c0.824-1.815,2.251-2.85,4.201-3.168c0.331-0.054,0.662-0.077,1.009-0.119
		c0.859-1.086,1.172-2.29,0.951-3.647c-0.17-1.045-0.555-2.005-1.064-2.924c-0.713-1.287-1.601-2.443-2.578-3.531
		c-2.38-2.655-5.075-4.959-7.918-7.097c-3.45-2.595-7.143-4.776-11.13-6.454c-0.417-0.179-0.817-0.398-1.316-0.643
		c-0.183,0.129-0.41,0.29-0.636,0.458c-2.874,2.146-6.275,1.183-8.125-1.182c-1.007-1.287-1.5-2.793-1.643-4.396
		c-0.443-4.885,1.259-9.009,4.57-12.526c0.604-0.643,1.309-1.172,2.107-1.552c1.854-0.884,3.641-0.776,5.332,0.412
		c1.042,0.729,1.86,1.672,2.46,2.797c0.315,0.591,0.551,1.211,0.611,1.892c0.025,0.284,0.084,0.566,0.133,0.872
		c0.304,0.103,0.572,0.208,0.849,0.286c8.153,2.249,15.162,6.453,21.194,12.34c6.031,5.887,10.495,12.831,13.839,20.536
		c2.135,4.919,3.63,10.032,4.76,15.269c0.937,4.363,1.969,8.71,3.342,12.963c3.016,9.338,8.21,17.305,15.198,24.127
		c4.065,3.974,8.479,7.548,13.012,10.979c8.594,6.523,17.703,12.26,27.106,17.53c4.189,2.348,8.438,4.579,12.766,6.655
		c0.372,0.182,0.753,0.351,1.12,0.517c0.242-0.21,0.075-0.398,0.025-0.576c-0.174-0.559-0.368-1.108-0.533-1.669
		c-0.546-1.881-0.659-3.779-0.164-5.686c0.458-1.759,1.415-3.203,2.845-4.315c2.104-1.628,4.495-2.517,7.155-2.688
		c2.987-0.189,5.799,0.466,8.479,1.778c0.301,0.147,0.578,0.362,0.895,0.441c2.854,0.747,5.728,1.143,8.649,0.36
		c1.233-0.324,2.342-0.88,3.371-1.614c1.24-0.883,2.071-2.062,2.401-3.545c0.58-2.617,0.85-5.268,0.685-7.96
		c-0.277-4.609-1.293-9.078-2.518-13.507c-0.97-3.499-1.979-6.984-2.908-10.492c-1.208-4.567-1.929-9.223-2.286-13.94
		c-0.244-3.254-0.28-6.507-0.115-9.76c0.428-8.065,2.129-15.862,5.088-23.385c4.678-11.881,11.69-22.195,20.862-31.052
		c11.288-10.913,24.487-18.542,39.657-22.729c2.893-0.795,5.822-1.444,8.799-1.916c0.334-0.048,0.654-0.136,1.045-0.223
		c0.119-0.331,0.252-0.673,0.354-1.024c3.402-12.646,10.432-22.813,21.01-30.531c0.23-0.171,0.482-0.332,0.697-0.522
		c0.283-0.242,0.221-0.685-0.104-0.832c-0.342-0.153-0.703-0.277-1.051-0.396c-2.383-0.802-4.828-1.316-7.303-1.752
		c-3.736-0.663-7.486-1.259-11.154-2.254c-4.551-1.238-9.027-2.729-13.498-4.244c-0.467-0.161-0.926-0.362-1.385-0.572
		c-1.805-0.843-3.145-2.167-3.91-4.036c-0.283-0.693-0.52-1.405-0.816-2.094c-0.482-1.114-0.984-2.215-1.488-3.312
		c-0.158-0.34-0.363-0.653-0.555-0.982c-1.287-2.259-3.281-3.381-5.84-3.512c-1.045-0.056-2.09-0.045-3.133,0.023
		c-3.119,0.222-6.236,0.494-9.336,0.966c-4.791,0.729-9.517,1.713-14.165,3.101c-2.556,0.768-5.086,1.636-7.705,2.195
		c-1.75,0.376-3.51,0.736-5.245,1.192c-2.173,0.574-4.331,1.239-6.492,1.865c-2.211,0.645-4.435,1.176-6.756,1.185
		c-1.517,0.009-3.004-0.167-4.454-0.581c-2.726-0.779-5.02-2.234-6.809-4.445c-0.187-0.228-0.368-0.455-0.581-0.713
		c-0.975-0.156-1.967-0.065-2.962,0.051c-2.334,0.278-4.597,0.873-6.749,1.801c-2.188,0.937-4.333,1.955-6.479,2.988
		c-4.099,1.97-8.175,3.997-12.271,5.957c-2.529,1.209-5.146,2.199-7.773,3.143c-1.375,0.493-2.706,1.104-4.054,1.659
		c-1.429,0.586-2.836,1.231-4.287,1.744c-1.87,0.664-3.804,0.975-5.786,0.645c-1.898-0.311-3.448-1.233-4.585-2.789
		c-0.998-1.363-1.313-2.863-0.803-4.5c0.063-0.201,0.191-0.414,0.162-0.6c-0.139-0.791,0.312-1.357,0.689-1.953
		c2.089-3.279,4.333-6.453,6.879-9.387c2.701-3.107,5.853-5.71,9.332-7.912c3.253-2.059,6.694-3.758,10.262-5.194
		c5.083-2.053,10.336-3.549,15.673-4.758c4.966-1.123,9.976-2.027,15.009-2.797c4.287-0.655,8.579-1.325,12.881-1.893
		c2.895-0.378,5.805-0.603,8.715-0.878c4.491-0.424,9.002-0.604,13.508-0.644c4.683-0.039,9.34,0.186,14.005,0.616
		c13.398,1.24,26.277,4.617,38.771,9.517c11.736,4.598,22.826,10.453,33.465,17.188c4.021,2.548,7.959,5.22,11.826,8.004
		c0.307,0.222,0.686,0.393,0.883,0.69c0.43,0.68,1.09,0.708,1.758,0.731c0.961,0.032,1.926,0.014,2.883,0.082
		c1.119,0.077,2.256,0.117,3.357,0.365c2.674,0.616,5.072,1.846,7.139,3.696c3.432,3.075,5.428,6.93,6.207,11.439
		c0.129,0.773,0.129,1.565,0.33,2.337c0.1,0.369,0.213,0.701,0.443,1.011c2.043,2.697,4.068,5.408,6.115,8.096
		c0.781,1.028,1.613,2.017,2.439,3.017c0.205,0.254,0.443,0.491,0.715,0.785c0.438-0.25,0.838-0.471,1.229-0.701
		c4.381-2.584,8.773-5.165,13.32-7.473c4.729-2.405,9.594-4.499,14.713-5.958c5.715-1.627,11.52-2.339,17.455-1.876
		c2.924,0.226,5.781,0.811,8.531,1.856c5.516,2.087,9.455,5.844,11.91,11.18c0.963,2.1,1.648,4.291,1.967,6.572
		c0.176,1.281,0.193,2.583,0.193,3.877c0,1.877,0.035,3.76-0.336,5.614c-0.414,2.013-1.035,3.956-1.982,5.783
		c-1.984,3.844-5.139,6.035-9.4,6.694c-3.361,0.521-6.736,0.5-10.115,0.415c-2.133-0.054-4.262-0.05-6.395-0.076
		c-0.291-0.003-0.58-0.033-0.861-0.047c-0.469-0.015-0.939-0.11-1.371-0.018c-1.328,0.265-2.668,0.13-3.996,0.235
		c-3.176,0.262-6.285,0.821-9.254,2.008c-2.799,1.113-5.242,2.746-7.27,4.896c-0.109,0.494,0.104,0.872,0.232,1.262
		c2.107,6.516,3.967,13.096,5.432,19.782c1.121,5.097,2.018,10.233,2.676,15.411c1.039,8.138,1.273,16.31,1.115,24.501
		c-0.07,3.839-0.248,7.677-0.697,11.497c-0.406,3.524-0.873,7.04-1.973,10.435c-0.719,2.235-1.676,4.362-2.986,6.321
		c-1.045,1.571-2.287,2.979-3.732,4.192c-0.822,0.696-1.602,1.473-2.574,1.983c-0.59,0.303-1.17,0.601-1.885,0.979
		c-1.477,5.344-3.725,10.539-6.625,15.448c-2.904,4.91-6.393,9.356-10.504,13.254c1.293,2.954,1.719,5.938,1.523,9.019
		c-0.188,2.985-1.5,5.335-3.975,7.034c-1.492,1.028-3.141,1.748-4.859,2.266c-1.516,0.452-3.063,0.835-4.58,1.284
		c-0.961,0.286-1.908,0.61-2.846,0.972c-2.145,0.826-3.943,2.175-5.34,4.006c-0.688,0.892-1.297,1.836-1.947,2.767
		c-0.727,1.065-1.41,2.17-2.172,3.205c-2.311,3.089-5.344,4.98-9.164,5.604c-1.766,0.284-3.531,0.605-5.289,0.974
		c-3.691,0.771-6.451,2.848-8.314,6.103c-0.59,1.049-1.111,2.147-1.66,3.225c-0.531,1.042-1.004,2.11-1.57,3.138
		c-1.943,3.623-4.736,6.421-8.385,8.361c-3.041,1.621-6.275,2.702-9.617,3.486c-2.807,0.655-5.656,1.098-8.504,1.493
		c-2.93,0.411-5.869,0.805-8.814,1.148c-2.15,0.254-4.324,0.435-6.484,0.608c-4.662,0.378-9.34,0.416-14.018,0.488
		c-2.836,0.047-5.666,0.174-8.504,0.313c-1.289,0.062-2.568,0.259-3.836,0.59c-2.681,0.704-4.172,2.466-4.633,5.154
		c-0.124,0.738-0.207,1.489-0.292,2.233c-0.162,1.454-0.387,2.891-0.974,4.251c-1.032,2.386-2.649,4.224-4.958,5.44
		c-2.019,1.06-4.169,1.704-6.403,2.078c-0.74,0.121-1.49,0.186-2.237,0.296c-0.233,0.039-0.463,0.132-0.691,0.207
		C208.336,315.426,205.082,315.426,201.821,315.426z M36.207,158.873c0.625-0.711,1.099-1.361,1.68-1.883
		c1.126-1.013,2.447-1.362,3.956-0.949c1.501,0.414,2.708,1.258,3.721,2.416c1.357,1.55,2.043,3.427,2.575,5.372
		c0.172,0.629-0.229,1.302-0.821,1.503c-0.633,0.22-1.302-0.011-1.588-0.637c-0.275-0.604-0.465-1.25-0.668-1.885
		c-0.351-1.097-0.908-2.071-1.747-2.851c-0.425-0.396-0.902-0.759-1.42-1.005c-1.173-0.567-2.228-0.298-2.975,0.765
		c-0.933,1.332-1.48,2.79-1.255,4.464c0.111,0.83,0.19,1.659,0.247,2.491c0.313,4.633,1.017,9.208,2.081,13.723
		c1.157,4.925,2.723,9.722,4.633,14.405c1.302,3.188,3.251,5.903,5.83,8.189c2.132,1.883,4.413,3.563,6.844,5.041
		c2.756,1.672,5.646,3.076,8.58,4.386c2.211,0.991,4.357,2.102,6.43,3.364c4.506,2.749,8.139,6.36,10.844,10.899
		c1.245,2.079,2.374,4.217,3.398,6.413c1.442,3.103,2.828,6.229,4.289,9.322c1.329,2.833,2.651,5.675,4.098,8.447
		c4.576,8.765,11.083,15.826,19.172,21.457c1.922,1.344,3.968,2.462,6.156,3.314c2.024,0.783,4.034,1.604,6.048,2.415
		c0.307,0.125,0.611,0.267,0.896,0.438c0.302,0.186,0.454,0.475,0.458,0.843c0.005,0.813-0.783,1.521-1.583,1.388
		c-0.245-0.041-0.479-0.144-0.714-0.233c-1.819-0.723-3.641-1.458-5.472-2.159c-3.021-1.159-5.836-2.694-8.405-4.657
		c-1.593-1.215-3.133-2.493-4.699-3.746c-0.322-0.259-0.636-0.525-0.994-0.817c-0.248,0.232-0.471,0.41-0.651,0.625
		c-0.301,0.349-0.619,0.691-0.844,1.084c-0.762,1.341-1.497,2.698-2.217,4.068c-0.677,1.291-1.308,2.609-1.975,3.908
		c-1.394,2.69-3.381,4.851-5.926,6.496c-0.804,0.522-1.617,1.038-2.427,1.55c-0.706,0.448-1.414,0.885-2.119,1.335
		c-1.949,1.256-3.625,2.81-5.104,4.585c-0.423,0.513-0.806,1.068-1.141,1.646c-0.232,0.387-0.384,0.836-0.48,1.279
		c-0.136,0.585,0.104,1.087,0.622,1.381c0.317,0.182,0.694,0.32,1.055,0.353c1.037,0.092,2.084,0.193,3.121,0.156
		c2.545-0.089,5.087-0.266,7.634-0.375c6.638-0.292,13.271-0.102,19.899,0.311c3.876,0.241,7.751,0.49,11.637,0.365
		c2.637-0.086,5.25-0.371,7.814-0.992c3.156-0.767,6.108-1.986,8.706-3.973c2.339-1.781,4.131-4.001,5.323-6.688
		c0.094-0.211,0.118-0.454,0.191-0.74c-1.656-0.213-3.223-0.41-4.791-0.623c-0.87-0.115-1.742-0.212-2.598-0.397
		c-0.765-0.166-1.054-0.801-0.792-1.545c0.192-0.556,0.732-0.956,1.337-0.959c0.204-0.003,0.411,0.055,0.617,0.08
		c3.518,0.433,7.033,0.887,10.552,1.301c4.433,0.529,8.866,1.019,13.304,1.541c0.911,0.106,1.824,0.237,2.719,0.434
		c0.779,0.166,1.057,0.788,0.771,1.535c-0.266,0.707-0.856,1.043-1.7,0.928c-1.241-0.165-2.477-0.365-3.718-0.52
		c-2.402-0.302-4.806-0.585-7.209-0.856c-0.215-0.026-0.489-0.156-0.668,0.187c0.208,0.198,0.417,0.396,0.624,0.587
		c2.492,2.226,4.968,4.471,7.479,6.673c2.446,2.149,4.891,4.299,7.401,6.376c3.486,2.875,7.193,5.429,11.208,7.528
		c3.919,2.049,8.057,3.431,12.413,4.159c4.588,0.768,9.214,0.886,13.854,0.657c1.665-0.078,3.332-0.211,4.992-0.403
		c1.629-0.188,3.188-0.641,4.647-1.413c2.13-1.132,3.583-2.826,4.26-5.161c0.207-0.715,0.372-1.451,0.508-2.19
		c0.186-1.027,0.285-2.066,0.502-3.088c0.614-2.939,2.273-5.078,5.058-6.241c0.959-0.397,1.966-0.693,2.987-0.934
		c2.036-0.488,4.122-0.601,6.198-0.71c3.045-0.157,6.094-0.214,9.139-0.32c3.088-0.103,6.188-0.133,9.266-0.327
		c4.629-0.292,9.23-0.781,13.828-1.367c3.395-0.433,6.768-0.997,10.102-1.795c2.971-0.717,5.865-1.63,8.592-3.034
		c3.678-1.894,6.531-4.574,8.26-8.408c0.732-1.636,1.617-3.204,2.48-4.777c0.721-1.322,1.584-2.548,2.594-3.678
		c1.793-2.016,3.955-3.46,6.559-4.186c1.111-0.314,2.279-0.506,3.424-0.725c1.354-0.253,2.713-0.44,4.063-0.726
		c2.559-0.531,4.625-1.881,6.195-3.959c0.703-0.928,1.326-1.917,1.979-2.887c0.678-1.005,1.334-2.025,2.023-3.016
		c1.707-2.426,3.955-4.178,6.75-5.182c1.529-0.549,3.086-1.024,4.639-1.522c1.545-0.49,3.104-0.942,4.65-1.453
		c1.033-0.343,1.988-0.854,2.885-1.481c1.289-0.898,2.137-2.111,2.516-3.626c0.178-0.726,0.279-1.479,0.313-2.225
		c0.094-1.941-0.357-3.812-0.838-5.675c-0.029-0.109-0.141-0.2-0.201-0.293c-0.447,0-0.666,0.346-0.951,0.575
		c-2.301,1.876-4.738,3.575-7.297,5.069c-3.736,2.173-7.645,3.925-11.855,4.96c-4.578,1.128-9.154,1.319-13.723-0.058
		c-0.119-0.033-0.242-0.008-0.33-0.008c-0.283,0.643-0.533,1.255-0.822,1.844c-0.877,1.765-1.918,3.425-3.074,5.018
		c-2.402,3.339-5.287,6.242-8.445,8.852c-3.666,3.012-7.645,5.53-11.777,7.833c-7.771,4.351-15.979,7.77-24.365,10.723
		c-0.246,0.082-0.486,0.164-0.725,0.212c-0.396,0.079-0.738-0.065-1.01-0.369c-0.541-0.608-0.408-1.669,0.297-2.066
		c0.412-0.219,0.848-0.354,1.287-0.508c5.072-1.795,10.088-3.756,14.975-6.026c5.639-2.629,11.094-5.605,16.182-9.225
		c3.113-2.206,5.994-4.656,8.578-7.471c2.24-2.446,4.158-5.119,5.693-8.059c0.313-0.597,0.572-1.195,0.473-1.938
		c-0.201-0.117-0.418-0.248-0.631-0.363c-1.98-1.051-3.707-2.41-5.311-3.958c-2.506-2.431-4.57-5.195-6.262-8.245
		c-3.945-7.131-5.758-14.82-5.957-22.917c-0.092-3.604,0.281-7.17,1.014-10.701c0.756-3.693,1.908-7.259,3.678-10.606
		c1.111-2.074,2.41-4.001,4.053-5.696c2.377-2.464,5.211-4.147,8.561-4.914c2.014-0.455,4.057-0.481,6.115-0.32
		c0.273,0.021,0.557,0.001,0.898,0.001c0.395-1.169,0.678-2.342,0.951-3.514c1.109-4.771,1.652-9.622,1.961-14.496
		c0.252-3.837,0.379-7.675,0.547-11.514c0.154-3.667,0.344-7.336,0.709-10.996c0.504-5.11,1.223-10.187,2.285-15.214
		c1.52-7.222,3.717-14.206,6.984-20.833c0.115-0.226,0.289-0.449,0.303-0.681c0.018-0.698,0.338-1.264,0.805-1.868
		c-1.926-1.237-3.77-2.443-5.893-3.123c-1.199-0.379-2.357-0.818-3.496-1.344c-3.721-1.713-7.555-3.133-11.498-4.252
		c-5.852-1.662-11.785-2.738-17.848-3.07c-5.264-0.294-10.516-0.079-15.748,0.62c-6.018,0.807-11.898,2.193-17.619,4.222
		c-14.973,5.312-27.561,14.116-37.902,26.143c-6.619,7.705-11.746,16.306-15.206,25.879c-2.184,6.036-3.556,12.256-4.056,18.657
		c-0.277,3.58-0.351,7.171-0.115,10.763c0.237,3.549,0.688,7.063,1.438,10.534c0.743,3.471,1.742,6.873,2.737,10.277
		c1.336,4.61,2.574,9.242,3.276,14.005c0.536,3.666,0.507,7.319,0.012,10.981c-0.091,0.742-0.249,1.485-0.442,2.206
		c-0.421,1.582-1.258,2.89-2.574,3.895c-1.309,1.001-2.708,1.794-4.275,2.302c-1.479,0.479-2.996,0.744-4.553,0.769
		c-0.351,0.006-0.724-0.06-1.11,0.108c0.092,0.174,0.13,0.299,0.213,0.373c1.704,1.544,3.377,3.113,5.122,4.605
		c0.82,0.699,1.745,1.292,2.681,1.842c1.966,1.164,4.098,1.854,6.404,1.892c0.253,0.004,0.51,0.004,0.752,0.052
		c0.814,0.168,1.23,0.923,0.959,1.724c-0.2,0.59-0.637,0.851-1.236,0.877c-1.087,0.049-2.168-0.113-3.224-0.329
		c-2.418-0.506-4.563-1.602-6.56-3.011c-1.678-1.183-3.203-2.545-4.709-3.926c-1.488-1.352-2.989-2.667-4.455-4.041
		c-0.803-0.751-1.701-1.292-2.708-1.737c-1.506-0.658-3.044-1.171-4.67-1.364c-2.568-0.307-4.996,0.086-7.166,1.59
		c-3.587,2.485-3.453,6.501-1.853,9.334c0.549,0.979,1.203,1.908,1.708,2.909c0.274,0.531,0.63,0.852,1.157,1.045
		c0.157,0.061,0.305,0.129,0.456,0.197c12.746,5.567,25.902,9.815,39.595,12.302c3.617,0.659,7.247,1.173,10.902,1.554
		c3.117,0.32,6.243,0.517,9.372,0.651c4.756,0.203,9.52,0.079,14.262-0.273c0.541-0.039,1.086-0.084,1.627-0.069
		c0.496,0.019,0.852,0.36,0.969,0.842c0.184,0.727-0.217,1.479-0.939,1.671c-0.354,0.098-0.732,0.143-1.115,0.168
		c-1.576,0.101-3.164,0.225-4.754,0.277c-8.021,0.266-16.022-0.07-23.979-1.163c-4.921-0.678-9.804-1.558-14.645-2.681
		c-10.476-2.427-20.634-5.82-30.512-10.058c-19.688-8.452-37.771-19.577-54.562-32.838c-4.2-3.318-8.136-6.926-11.706-10.926
		c-5.528-6.187-9.626-13.19-12.127-21.121c-1.358-4.298-2.421-8.676-3.431-13.07c-0.856-3.74-1.767-7.465-3.027-11.103
		c-3.27-9.448-8.475-17.649-15.819-24.457c-5.378-4.983-11.542-8.636-18.618-10.685c-0.826-0.244-1.649-0.514-2.554-0.514
		c-0.877,0-1.43-0.724-1.388-1.603c0.026-0.541,0.104-1.077,0.148-1.617c0.136-1.453-0.845-2.719-2.287-2.95
		c-1.041-0.165-1.984,0.088-2.833,0.703c-0.823,0.593-1.502,1.322-2.09,2.146c-1.182,1.667-1.836,3.542-2.17,5.544
		c-0.218,1.331-0.299,2.651,0.025,3.98c0.28,1.127,0.813,2.101,1.732,2.827c1.109,0.878,2.564,0.898,3.72,0.082
		c0.668-0.474,1.128-1.111,1.452-1.85c0.118-0.266,0.203-0.553,0.344-0.804c0.341-0.605,1.094-0.814,1.744-0.514
		c0.558,0.26,0.816,0.82,0.648,1.459c-0.102,0.396-0.248,0.776-0.393,1.233c0.428,0.194,0.795,0.366,1.172,0.531
		c7.003,3.071,13.224,7.27,18.432,12.91c1.224,1.317,2.355,2.705,3.324,4.229c0.744,1.163,1.364,2.391,1.76,3.723
		c0.484,1.65,0.517,3.289-0.135,4.907c-0.074,0.19-0.131,0.383-0.208,0.602c0.166,0.114,0.29,0.228,0.435,0.296
		c2.045,0.956,3.48,2.547,4.594,4.463c1.151,1.98,1.812,4.119,2.179,6.361c0.047,0.288,0.05,0.583,0.041,0.874
		c-0.013,0.42-0.253,0.704-0.631,0.854c-0.792,0.315-1.659-0.098-1.896-0.923c-0.111-0.396-0.149-0.816-0.228-1.229
		c-0.397-2.026-1.092-3.939-2.297-5.636c-0.663-0.928-1.457-1.728-2.487-2.248c-1.07-0.536-2.191-0.793-3.391-0.536
		c-1.197,0.262-1.912,0.992-2.113,2.188c-0.083,0.49-0.101,0.997-0.076,1.493c0.063,1.351,0.468,2.622,0.986,3.862
		c0.127,0.305,0.274,0.614,0.334,0.938c0.106,0.628-0.299,1.21-0.945,1.447c-0.607,0.229-1.084,0.028-1.451-0.617
		c-0.143-0.251-0.261-0.522-0.368-0.794c-0.387-1.005-0.765-2.015-1.173-3.094c-0.189,0.091-0.382,0.156-0.542,0.266
		c-0.308,0.221-0.588,0.471-0.886,0.702c-3.269,2.524-6.943,3.313-10.981,2.567c-2.199-0.409-4.242-1.233-6.203-2.281
		c-2.372-1.258-4.539-2.813-6.598-4.526c-2.858-2.379-5.521-4.969-8.239-7.505c-2.899-2.709-5.824-5.388-8.77-8.044
		c-1.427-1.284-2.984-2.415-4.636-3.41c-1.614-0.971-3.304-1.786-5.159-2.194c-0.811-0.18-1.643-0.271-2.469-0.404
		c-0.081-0.012-0.164-0.002-0.25-0.009c-1.206-0.091-1.589-0.501-1.424-1.673c0.286-1.993-0.487-3.594-1.786-4.993
		c-0.336-0.357-0.781-0.632-1.213-0.862c-0.663-0.354-1.364-0.336-2.055-0.037c-0.788,0.342-1.408,0.889-1.938,1.547
		c-0.638,0.784-1.111,1.671-1.49,2.603c-0.722,1.78-1.313,3.606-1.699,5.491c-0.226,1.146-0.368,2.306-0.148,3.482
		c0.343,1.861,1.857,3.152,3.785,3.185c1.857,0.029,3.145-1.068,3.555-3.026c0.042-0.206,0.075-0.416,0.149-0.608
		c0.261-0.707,0.978-1.05,1.73-0.841c0.566,0.156,0.876,0.67,0.776,1.384c-0.06,0.452-0.204,0.897-0.303,1.341
		c-0.051,0.23-0.096,0.467-0.146,0.7c0.208,0.114,0.347,0.21,0.5,0.274c3.241,1.36,6.046,3.38,8.5,5.866
		c1.583,1.601,3.078,3.292,4.556,4.994c1.782,2.045,3.505,4.144,5.261,6.21C35.521,158.179,35.848,158.494,36.207,158.873z
		 M324.831,210.382c0.291,0.079,0.48,0.153,0.68,0.183c0.365,0.058,0.746,0.1,1.115,0.117c4.588,0.223,8.623-1.23,12.189-4.06
		c2.332-1.841,4.102-4.138,5.514-6.733c1.465-2.692,2.498-5.553,3.289-8.502c1.215-4.524,1.883-9.147,2.514-13.781
		c0.416-3.1,0.762-6.21,1.086-9.318c0.338-3.365,0.627-6.733,0.924-10.102c0.207-2.366,0.41-4.738,0.617-7.106
		c0.207-2.413,0.439-4.822,0.623-7.236c0.242-3.369,0.467-6.746,0.984-10.09c0.533-3.477,1.377-6.868,2.906-10.062
		c0.07-0.15,0.16-0.3,0.182-0.462c0.158-1.003,0.656-1.886,1.016-2.818c1.471-3.88,3.443-7.496,5.699-10.974
		c1.422-2.176,3.197-4.063,4.697-6.161c0.074-0.101,0.186-0.165,0.285-0.242c0.459-0.36,0.934-0.699,1.365-1.081
		c2.504-2.214,5.318-3.879,8.471-4.999c2.719-0.976,5.533-1.543,8.422-1.783c0.701-0.058,1.408-0.079,2.107-0.274
		c0.184-0.397,0.371-0.771,0.529-1.154c2.063-5.039,2.871-10.261,2.227-15.688c-0.305-2.508-0.943-4.915-2.078-7.177
		c-2.174-4.357-5.615-7.17-10.344-8.4c-0.721-0.19-1.441-0.36-2.287-0.571c-2.041,0.918-4.197,1.839-6.303,2.845
		c-5.424,2.588-10.619,5.618-15.773,8.709c-0.844,0.508-1.563,1.234-2.51,1.575c-0.082,0.029-0.139,0.095-0.201,0.149
		c-0.926,0.728-1.848,1.438-2.762,2.176c-0.893,0.739-1.82,1.459-2.664,2.265c-0.83,0.795-1.465,1.795-2.578,2.274
		c-0.105,0.043-0.162,0.185-0.244,0.279c-0.318,0.334-0.625,0.674-0.938,1.007c-2.783,2.902-5.256,6.049-7.412,9.441
		c-0.398,0.635-0.705,1.326-1.131,1.946c-0.59,0.859-1.076,1.753-1.555,2.687c-3.17,6.302-5.379,12.931-6.896,19.8
		c-1.627,7.228-2.484,14.556-2.971,21.933c-0.234,3.666-0.365,7.337-0.514,11.009c-0.141,3.67-0.365,7.337-0.732,10.989
		c-0.434,4.162-1.102,8.272-2.23,12.302c-0.076,0.269-0.082,0.554-0.1,0.764c0.094,0.104,0.111,0.15,0.137,0.166
		c0.24,0.105,0.461,0.203,0.695,0.298c4.855,1.978,8.26,5.429,10.215,10.269c1.775,4.419,2.084,8.99,1.076,13.643
		c-0.877,4.022-2.748,7.498-5.754,10.338c-0.4,0.372-0.832,0.706-1.234,1.074C325.056,209.971,324.97,210.159,324.831,210.382z
		 M358.321,128.119c-0.205,0.691-0.322,1.087-0.426,1.487c-0.693,2.593-1.025,5.24-1.242,7.904
		c-0.207,2.458-0.369,4.914-0.604,7.365c-0.262,2.822-0.592,5.643-0.861,8.47c-0.35,3.823-0.668,7.647-0.988,11.476
		c-0.385,4.493-0.873,8.972-1.51,13.436c-0.646,4.464-1.49,8.884-2.547,13.265c-0.801,3.212-1.818,6.339-3.33,9.291
		c-2.303,4.476-5.654,7.927-10.115,10.265c-3.66,1.92-7.549,2.64-11.643,2.096c-0.908-0.121-1.813-0.323-2.697-0.572
		c-0.928-0.263-1.242-0.995-0.881-1.856c0.48-1.167,1.158-2.205,2.148-3.026c1.826-1.515,3.227-3.371,4.266-5.502
		c2.023-4.143,2.645-8.5,1.875-13.038c-0.398-2.368-1.232-4.584-2.539-6.618c-3.57-5.574-10.432-7.512-15.629-6.256
		c-2.916,0.705-5.408,2.136-7.582,4.168c-2.178,2.027-3.77,4.449-4.986,7.139c-2.482,5.459-3.467,11.227-3.412,17.176
		c0.023,3.726,0.496,7.41,1.398,11.027c1.043,4.148,2.467,8.15,4.553,11.894c1.576,2.828,3.469,5.416,5.91,7.563
		c5.291,4.657,11.408,6.383,18.369,5.029c2.377-0.464,4.664-1.249,6.906-2.177c6.857-2.853,12.721-7.13,17.805-12.505
		c7.717-8.157,12.482-17.848,14.867-28.77c1.232-5.651,1.771-11.378,1.939-17.142c0.15-6.02-0.156-12.022-0.758-18.009
		c-0.51-5.069-1.342-10.089-2.447-15.064c-1.328-5.915-3.063-11.703-5.285-17.343C358.759,128.992,358.601,128.71,358.321,128.119z
		 M318.284,40.683c-0.516-0.387-0.834-0.644-1.164-0.875c-5.135-3.59-10.404-6.982-15.807-10.14
		c-10.658-6.231-21.746-11.531-33.441-15.512c-6.844-2.33-13.816-4.181-20.938-5.447c-4.971-0.883-9.986-1.482-15.035-1.773
		c-5.049-0.292-10.097-0.273-15.149-0.083c-4.755,0.188-9.505,0.522-14.229,1.131c-3.927,0.508-7.858,1.008-11.775,1.625
		c-5.111,0.803-10.187,1.811-15.241,2.916c-4.935,1.082-9.824,2.322-14.593,4.013c-4.776,1.691-9.353,3.798-13.564,6.648
		c-3.727,2.523-7.068,5.463-9.737,9.111c-1.381,1.887-2.725,3.8-4.068,5.712c-0.472,0.678-1.001,1.341-0.957,2.251
		c0.007,0.153-0.104,0.312-0.176,0.468c-0.446,1.02-0.127,1.886,0.59,2.627c0.905,0.939,2.014,1.501,3.331,1.496
		c0.748-0.006,1.498-0.086,2.239-0.193c1.293-0.188,2.496-0.677,3.682-1.205c3.2-1.426,6.45-2.735,9.749-3.922
		c0.505-0.183,1.004-0.407,1.508-0.61c5.688-2.32,11.16-5.084,16.604-7.917c1.223-0.638,2.454-1.253,3.694-1.85
		c2.967-1.424,6.12-2.189,9.373-2.555c0.623-0.07,1.252-0.075,1.878-0.042c1.142,0.054,2.098,0.495,2.801,1.43
		c0.147,0.2,0.299,0.401,0.461,0.594c1.512,1.839,3.431,3.015,5.76,3.516c1.866,0.401,3.738,0.352,5.606,0.106
		c1.866-0.247,3.675-0.747,5.476-1.289c1.681-0.499,3.367-0.978,5.069-1.38c3.896-0.918,7.814-1.771,11.632-2.995
		c3.503-1.119,7.054-2.012,10.694-2.583c3.465-0.536,6.92-1.112,10.391-1.604c2.648-0.376,5.311-0.527,7.992-0.335
		c2.467,0.175,4.498,1.181,6.104,3.032c0.857,0.983,1.566,2.062,2.137,3.231c0.621,1.274,1.184,2.58,1.768,3.87
		c0.318,0.677,0.619,1.369,0.984,2.022c0.613,1.109,1.537,1.865,2.729,2.281c0.275,0.092,0.543,0.203,0.832,0.275
		c1.613,0.417,3.17,1.013,4.73,1.611c5.088,1.948,10.381,3.1,15.73,4.01c4.818,0.816,9.641,1.642,14.127,3.71
		c0.33,0.151,0.635,0.162,0.965,0.021c0.684-0.287,1.404-0.531,2.082-0.855c3.389-1.633,6.916-2.918,10.611-3.69
		C315.165,41.236,316.591,40.998,318.284,40.683z M382.524,60.211c0,0.087,0,0.179,0,0.264c0.256,0.12,0.514,0.251,0.779,0.359
		c3.984,1.643,6.914,4.434,8.922,8.22c1.648,3.107,2.48,6.456,2.729,9.942c0.367,5.105-0.32,10.073-2.143,14.873
		c-0.09,0.251-0.301,0.503-0.102,0.886c0.697,0.096,1.436,0.163,2.184,0.182c2.217,0.05,4.426,0.132,6.633,0.182
		c1.545,0.03,3.092,0.081,4.635,0.03c2-0.07,3.984-0.311,5.914-0.938c3.037-0.996,5.18-2.965,6.402-5.914
		c0.324-0.81,0.607-1.646,0.799-2.498c0.76-3.24,0.967-6.51,0.537-9.819c-0.314-2.461-0.93-4.831-2.025-7.063
		c-1.453-2.962-3.555-5.344-6.43-6.982c-5.068-2.876-10.535-4.111-16.338-3.955c-3.26,0.09-6.48,0.604-9.637,1.421
		C384.419,59.646,383.481,59.937,382.524,60.211z M278.286,80.18c0.396,0,0.727,0.021,1.045-0.002
		c1.531-0.104,3.082-0.229,4.613-0.334c5.855-0.398,11.674,0.051,17.459,0.922c3.895,0.584,7.709,1.438,11.455,2.591
		c0.275,0.081,0.566,0.09,0.783,0.131c0.758-1.058,1.461-2.037,2.17-3.03c0.035-0.266,0.053-0.557,0.098-0.843
		c0.064-0.326,0.154-0.649,0.227-0.976c0.797-3.676,0.902-7.365,0.158-11.056c-0.869-4.319-2.752-8.11-5.957-11.2
		c-2.145-2.062-4.646-3.504-7.445-4.454c-1.377-0.467-2.801-0.403-4.223-0.267c-1.246,0.12-1.246,0.125-2.236,0.911
		c-8.709,6.894-14.627,15.672-17.809,26.302C278.505,79.271,278.415,79.676,278.286,80.18z M318.985,78.144
		c0.289-0.083,0.404-0.102,0.516-0.15c1.557-0.713,3.184-1.229,4.846-1.639c1.576-0.391,3.16-0.782,4.73-1.201
		c1.773-0.471,3.512-1.069,5.119-1.977c0.471-0.266,0.938-0.555,1.346-0.903c1.313-1.116,2.42-2.403,3.223-3.952
		c0.686-1.341,1.24-2.733,1.602-4.195c0.201-0.81,0.254-1.655,0.516-2.443c0.324-1.004,0.277-1.967,0.021-2.952
		c-0.074-0.282-0.207-0.579-0.182-0.849c0.113-0.946-0.148-1.824-0.395-2.701c-1.07-3.876-3.145-7.064-6.479-9.382
		c-0.467-0.331-0.938-0.688-1.541-0.756c-0.238-0.021-0.479-0.182-0.672-0.328c-1.33-0.985-2.838-1.367-4.447-1.426
		c-1.34-0.044-2.688,0.022-4.006-0.105c-1.688-0.165-3.34,0.026-4.994,0.223c-4.291,0.511-8.408,1.665-12.355,3.461
		c-1.164,0.533-2.27,1.198-3.555,1.454c-0.201,0.035-0.396,0.14-0.586,0.236c-0.123,0.068-0.336,0.099-0.256,0.34
		c0.072,0.047,0.133,0.12,0.195,0.125c2.045,0.158,3.875,1.013,5.646,1.938c4.906,2.557,8.279,6.516,10.285,11.649
		c1.74,4.449,2.133,9.064,1.602,13.781C319.099,76.928,319.058,77.464,318.985,78.144z M369.321,107.181
		c-0.199,0.205-0.412,0.397-0.588,0.625c-0.74,0.964-1.441,1.948-2.186,2.901c-0.4,0.519-0.406,1-0.225,1.621
		c0.662,2.24,1.303,4.49,1.85,6.757c0.879,3.658,1.379,7.375,1.623,11.131c0.266,3.881,0.176,7.755-0.244,11.625
		c-0.287,2.615-0.719,5.205-1.326,7.762c-0.043,0.172,0,0.361,0.006,0.599c0.732-0.344,1.357-0.685,2.012-0.936
		c1.836-0.701,3.432-0.309,4.795,1.091c1.016,1.033,1.5,2.311,1.631,3.708c0.105,0.994,0.133,2.001,0.117,2.998
		c-0.018,1.669-0.1,3.336-0.141,5.007c-0.09,3.089-0.33,6.165-0.779,9.224c-0.641,4.466-1.584,8.866-2.834,13.203
		c-1.018,3.523-2.123,7.021-3.186,10.535c-0.086,0.263-0.123,0.533-0.184,0.843c0.775-0.157,0.775-0.151,1.252-0.6
		c1.744-1.663,3.047-3.64,4.029-5.83c1.152-2.572,1.842-5.273,2.238-8.052c0.254-1.859,0.441-3.727,0.582-5.6
		c0.25-3.37,0.52-6.743,0.639-10.117c0.205-6.092,0.137-12.185-0.4-18.263c-0.332-3.785-0.781-7.554-1.375-11.305
		c-0.939-5.896-2.176-11.728-3.729-17.486c-0.939-3.464-1.984-6.894-3.006-10.33C369.772,107.914,369.772,107.451,369.321,107.181z
		 M337.743,73.925c-0.156,0.109-0.334,0.212-0.475,0.351c-0.545,0.529-1.193,0.898-1.863,1.244c-1.68,0.876-3.469,1.434-5.283,1.892
		c-1.713,0.426-3.412,0.817-5.111,1.255c-1.574,0.405-3.107,0.934-4.547,1.718c-1.537,0.833-2.828,1.931-3.793,3.384
		c-0.131,0.192-0.348,0.377-0.189,0.759c0.791,0.277,1.65,0.584,2.512,0.888c2.32,0.813,4.621,1.689,6.723,3
		c0.363,0.224,0.764,0.331,1.184,0.357c0.639,0.042,1.215,0.251,1.775,0.569c1.34,0.773,2.668,1.542,4.006,2.312
		c0.205,0.121,0.418,0.234,0.695,0.388c0.783-1.154,1.506-2.268,2.279-3.345c0.75-1.054,1.521-2.089,2.332-3.1
		c0.834-1.038,1.719-2.044,2.598-3.047c0.875-0.996,1.783-1.971,2.674-2.949C342.341,78.323,339.021,74.894,337.743,73.925z
		 M369.772,186.188c0.199-0.518,0.346-0.806,0.432-1.107c0.471-1.687,0.943-3.369,1.363-5.066c1.43-5.762,2.313-11.6,2.383-17.551
		c0.018-2.288,0.104-4.581,0.125-6.873c0.012-0.703-0.033-1.429-0.201-2.111c-0.385-1.688-1.965-2.385-3.471-1.563
		c-0.852,0.462-1.564,1.088-2.178,1.786C369.942,164.441,370.315,175.166,369.772,186.188z M364.161,114.71
		c-0.137,0.181-0.281,0.311-0.379,0.476c-1.492,2.523-2.52,5.263-3.578,7.978c-0.076,0.19-0.088,0.406-0.145,0.605
		c-0.189,0.672-0.119,1.292,0.156,1.947c0.682,1.611,1.32,3.236,1.938,4.881c1.594,4.257,2.906,8.608,4.012,13.022
		c0.057,0.221,0,0.524,0.416,0.603c0.912-5.714,0.93-11.435,0.311-17.166C366.483,123.322,365.097,116.408,364.161,114.71z
		 M350.847,72.959c-2.49-3.238-4.949-6.437-7.42-9.634c-0.012-0.015-0.068,0.004-0.227,0.009c-0.57,3.062-1.711,5.932-3.523,8.495
		c0.1,0.166,0.143,0.287,0.217,0.372c1.709,1.769,3.426,3.533,5.139,5.296c0.111,0.109,0.275,0.157,0.418,0.236
		c1.1-0.903,2.162-1.78,3.23-2.645C349.454,74.459,350.298,73.906,350.847,72.959z"/>
</g>
<g>
	<path fill="#8BC641" d="M36.017,158.879c-0.362-0.378-0.69-0.69-0.983-1.036c-1.754-2.069-3.478-4.17-5.264-6.217
		c-1.481-1.698-2.977-3.393-4.56-4.994c-2.456-2.487-5.258-4.51-8.504-5.871c-0.153-0.064-0.289-0.159-0.498-0.275
		c0.048-0.229,0.089-0.466,0.143-0.698c0.099-0.447,0.244-0.892,0.308-1.342c0.098-0.717-0.214-1.23-0.779-1.384
		c-0.754-0.209-1.473,0.133-1.732,0.841c-0.078,0.192-0.105,0.402-0.147,0.605c-0.415,1.961-1.697,3.059-3.555,3.029
		c-1.929-0.032-3.448-1.322-3.79-3.185c-0.216-1.179-0.082-2.337,0.152-3.485c0.378-1.89,0.978-3.716,1.697-5.497
		c0.379-0.933,0.852-1.815,1.484-2.605c0.536-0.656,1.154-1.201,1.945-1.542c0.696-0.304,1.389-0.318,2.053,0.032
		c0.432,0.233,0.883,0.506,1.211,0.866c1.311,1.399,2.077,3.002,1.792,4.998c-0.167,1.172,0.219,1.584,1.429,1.673
		c0.08,0.006,0.168-0.003,0.245,0.01c0.828,0.126,1.658,0.225,2.472,0.401c1.854,0.41,3.546,1.228,5.162,2.198
		c1.651,0.993,3.211,2.127,4.637,3.413c2.949,2.655,5.876,5.336,8.775,8.046c2.717,2.538,5.383,5.131,8.249,7.513
		c2.059,1.713,4.225,3.267,6.599,4.529c1.964,1.045,4.009,1.868,6.208,2.278c4.039,0.748,7.712-0.043,10.984-2.568
		c0.3-0.23,0.581-0.483,0.884-0.699c0.16-0.112,0.356-0.178,0.545-0.266c0.407,1.08,0.785,2.091,1.173,3.092
		c0.105,0.273,0.225,0.542,0.366,0.8c0.366,0.643,0.851,0.839,1.454,0.614c0.646-0.24,1.049-0.823,0.943-1.449
		c-0.057-0.325-0.205-0.632-0.33-0.942c-0.52-1.24-0.927-2.509-0.986-3.862c-0.023-0.495-0.006-1.004,0.073-1.494
		c0.203-1.198,0.919-1.928,2.113-2.189c1.204-0.26,2.323-0.003,3.396,0.539c1.033,0.518,1.823,1.318,2.484,2.245
		c1.212,1.697,1.906,3.612,2.297,5.641c0.085,0.411,0.12,0.83,0.233,1.232c0.239,0.82,1.105,1.235,1.9,0.918
		c0.38-0.147,0.614-0.435,0.628-0.854c0.012-0.289,0.004-0.584-0.044-0.869c-0.365-2.245-1.026-4.389-2.178-6.366
		c-1.116-1.92-2.549-3.511-4.595-4.467c-0.147-0.068-0.271-0.184-0.438-0.296c0.075-0.222,0.134-0.414,0.213-0.6
		c0.649-1.623,0.617-3.262,0.131-4.912c-0.394-1.335-1.017-2.563-1.76-3.729c-0.971-1.523-2.105-2.909-3.326-4.233
		c-5.209-5.639-11.433-9.838-18.447-12.913c-0.374-0.165-0.741-0.335-1.171-0.531c0.146-0.455,0.289-0.839,0.394-1.231
		c0.17-0.641-0.089-1.205-0.646-1.461c-0.651-0.3-1.404-0.092-1.747,0.518c-0.142,0.249-0.225,0.535-0.343,0.802
		c-0.325,0.738-0.785,1.376-1.454,1.85c-1.154,0.819-2.612,0.796-3.722-0.081c-0.918-0.729-1.455-1.707-1.729-2.835
		c-0.328-1.325-0.244-2.647-0.022-3.979c0.327-2.007,0.987-3.88,2.17-5.548c0.584-0.823,1.267-1.552,2.083-2.149
		c0.856-0.616,1.801-0.867,2.843-0.702c1.437,0.233,2.418,1.497,2.29,2.949c-0.047,0.543-0.123,1.083-0.15,1.621
		c-0.048,0.877,0.512,1.604,1.391,1.601c0.906,0,1.722,0.273,2.555,0.517c7.076,2.049,13.246,5.7,18.626,10.692
		c7.348,6.809,12.557,15.018,15.827,24.472c1.263,3.635,2.176,7.365,3.032,11.108c1.009,4.394,2.072,8.772,3.43,13.082
		c2.507,7.931,6.603,14.937,12.14,21.129c3.569,4,7.508,7.615,11.707,10.933c16.804,13.265,34.896,24.403,54.595,32.855
		c9.882,4.24,20.043,7.639,30.523,10.068c4.842,1.118,9.734,2.004,14.658,2.674c7.966,1.095,15.967,1.435,23.999,1.167
		c1.588-0.051,3.168-0.173,4.758-0.277c0.365-0.022,0.752-0.066,1.111-0.163c0.715-0.195,1.125-0.951,0.934-1.675
		c-0.115-0.484-0.469-0.828-0.965-0.841c-0.537-0.019-1.08,0.026-1.617,0.067c-4.754,0.353-9.514,0.474-14.281,0.274
		c-3.133-0.132-6.261-0.33-9.368-0.651c-3.66-0.379-7.301-0.895-10.917-1.556c-13.704-2.492-26.866-6.737-39.614-12.309
		c-0.153-0.067-0.302-0.141-0.461-0.2c-0.525-0.192-0.886-0.511-1.154-1.046c-0.511-1-1.159-1.93-1.714-2.91
		c-1.595-2.831-1.729-6.849,1.856-9.336c2.17-1.503,4.6-1.901,7.173-1.593c1.625,0.196,3.165,0.704,4.668,1.366
		c1.01,0.442,1.913,0.983,2.71,1.736c1.465,1.373,2.976,2.694,4.456,4.042c1.517,1.381,3.038,2.75,4.72,3.926
		c1.993,1.413,4.138,2.51,6.555,3.014c1.058,0.22,2.138,0.376,3.232,0.336c0.591-0.022,1.037-0.291,1.229-0.881
		c0.274-0.805-0.137-1.557-0.957-1.725c-0.244-0.047-0.493-0.047-0.743-0.053c-2.317-0.037-4.446-0.729-6.415-1.894
		c-0.937-0.549-1.857-1.143-2.681-1.843c-1.745-1.493-3.423-3.063-5.125-4.604c-0.078-0.077-0.116-0.198-0.216-0.379
		c0.387-0.165,0.767-0.103,1.116-0.107c1.559-0.02,3.073-0.287,4.554-0.769c1.565-0.507,2.975-1.305,4.281-2.302
		c1.309-1.005,2.155-2.313,2.577-3.895c0.191-0.725,0.344-1.464,0.441-2.208c0.488-3.662,0.522-7.322-0.016-10.989
		c-0.706-4.766-1.937-9.399-3.282-14.012c-0.993-3.409-1.991-6.813-2.735-10.286c-0.75-3.474-1.203-6.99-1.439-10.538
		c-0.234-3.596-0.163-7.186,0.117-10.767c0.499-6.407,1.872-12.63,4.058-18.672c3.463-9.579,8.59-18.183,15.218-25.891
		c10.342-12.033,22.927-20.844,37.931-26.159c5.717-2.031,11.594-3.417,17.619-4.225c5.234-0.7,10.486-0.915,15.756-0.626
		c6.063,0.337,12.01,1.414,17.865,3.076c3.943,1.119,7.783,2.542,11.492,4.256c1.143,0.523,2.314,0.966,3.506,1.345
		c2.119,0.681,3.975,1.887,5.889,3.125c-0.461,0.604-0.781,1.167-0.805,1.863c-0.012,0.233-0.182,0.462-0.291,0.688
		c-3.275,6.63-5.471,13.618-6.996,20.84c-1.055,5.031-1.775,10.112-2.285,15.228c-0.363,3.664-0.549,7.331-0.709,11.003
		c-0.162,3.839-0.305,7.68-0.541,11.517c-0.309,4.88-0.855,9.736-1.967,14.511c-0.268,1.173-0.561,2.344-0.949,3.513
		c-0.344,0-0.627,0.018-0.906-0.002c-2.047-0.162-4.096-0.134-6.111,0.322c-3.352,0.764-6.188,2.452-8.566,4.914
		c-1.641,1.695-2.959,3.622-4.051,5.699c-1.775,3.353-2.924,6.917-3.695,10.616c-0.721,3.53-1.092,7.1-0.998,10.707
		c0.201,8.102,2.012,15.795,5.959,22.925c1.682,3.055,3.758,5.822,6.268,8.254c1.59,1.55,3.33,2.905,5.303,3.965
		c0.221,0.112,0.434,0.239,0.639,0.358c0.1,0.74-0.166,1.345-0.482,1.939c-1.535,2.939-3.457,5.618-5.693,8.063
		c-2.58,2.821-5.473,5.269-8.586,7.475c-5.084,3.622-10.545,6.599-16.201,9.229c-4.883,2.273-9.895,4.235-14.973,6.034
		c-0.428,0.153-0.883,0.285-1.283,0.51c-0.703,0.396-0.844,1.453-0.303,2.069c0.279,0.299,0.615,0.444,1.018,0.363
		c0.246-0.044,0.484-0.13,0.715-0.213c8.4-2.954,16.602-6.376,24.391-10.723c4.127-2.308,8.115-4.828,11.775-7.84
		c3.174-2.618,6.045-5.521,8.461-8.859c1.15-1.593,2.191-3.254,3.059-5.02c0.295-0.593,0.543-1.199,0.832-1.843
		c0.096,0,0.223-0.028,0.328,0.003c4.572,1.379,9.154,1.185,13.74,0.056c4.207-1.036,8.121-2.785,11.863-4.961
		c2.553-1.494,4.996-3.189,7.297-5.07c0.271-0.232,0.504-0.578,0.939-0.578c0.078,0.095,0.184,0.187,0.213,0.298
		c0.469,1.862,0.928,3.734,0.838,5.68c-0.035,0.741-0.135,1.495-0.313,2.224c-0.379,1.521-1.232,2.728-2.516,3.626
		c-0.891,0.626-1.852,1.142-2.887,1.482c-1.547,0.51-3.113,0.962-4.664,1.455c-1.555,0.496-3.107,0.971-4.629,1.522
		c-2.807,1.005-5.043,2.755-6.75,5.184c-0.709,0.99-1.355,2.014-2.029,3.016c-0.652,0.971-1.287,1.957-1.979,2.891
		c-1.576,2.081-3.648,3.43-6.207,3.967c-1.346,0.28-2.709,0.47-4.066,0.724c-1.143,0.213-2.303,0.405-3.43,0.724
		c-2.594,0.724-4.76,2.169-6.551,4.186c-1.008,1.131-1.875,2.359-2.592,3.683c-0.869,1.573-1.748,3.144-2.486,4.778
		c-1.723,3.835-4.582,6.519-8.254,8.412c-2.734,1.407-5.637,2.32-8.609,3.035c-3.334,0.803-6.701,1.365-10.109,1.798
		c-4.6,0.586-9.205,1.071-13.832,1.365c-3.09,0.195-6.184,0.228-9.264,0.332c-3.049,0.103-6.102,0.161-9.143,0.318
		c-2.092,0.111-4.174,0.222-6.215,0.711c-1.012,0.237-2.03,0.535-2.978,0.931c-2.797,1.166-4.453,3.303-5.07,6.249
		c-0.213,1.017-0.313,2.062-0.502,3.089c-0.138,0.735-0.3,1.474-0.507,2.194c-0.668,2.334-2.134,4.029-4.269,5.157
		c-1.457,0.773-3.016,1.228-4.645,1.417c-1.653,0.189-3.328,0.328-4.992,0.404c-4.641,0.23-9.272,0.108-13.872-0.661
		c-4.353-0.725-8.491-2.107-12.411-4.157c-4.017-2.102-7.728-4.656-11.214-7.534c-2.513-2.07-4.962-4.228-7.406-6.377
		c-2.513-2.206-4.99-4.448-7.484-6.678c-0.209-0.188-0.417-0.391-0.624-0.584c0.181-0.346,0.455-0.217,0.666-0.19
		c2.406,0.271,4.811,0.557,7.217,0.854c1.238,0.159,2.479,0.357,3.718,0.524c0.845,0.113,1.433-0.221,1.706-0.935
		c0.283-0.744,0.007-1.365-0.773-1.533c-0.896-0.192-1.807-0.322-2.719-0.435c-4.438-0.519-8.878-1.013-13.317-1.537
		c-3.519-0.419-7.036-0.868-10.558-1.305c-0.203-0.026-0.41-0.082-0.617-0.079c-0.604,0.008-1.14,0.4-1.337,0.959
		c-0.258,0.743,0.031,1.381,0.793,1.546c0.854,0.187,1.731,0.283,2.599,0.399c1.565,0.21,3.141,0.41,4.792,0.626
		c-0.071,0.28-0.093,0.525-0.187,0.737c-1.196,2.689-2.993,4.909-5.328,6.696c-2.602,1.981-5.555,3.205-8.713,3.97
		c-2.565,0.623-5.184,0.91-7.813,0.992c-3.89,0.127-7.769-0.124-11.646-0.363c-6.633-0.412-13.271-0.606-19.918-0.315
		c-2.541,0.112-5.084,0.292-7.631,0.376c-1.041,0.04-2.091-0.061-3.125-0.153c-0.359-0.028-0.736-0.172-1.054-0.352
		c-0.517-0.295-0.759-0.797-0.628-1.385c0.108-0.443,0.254-0.892,0.484-1.279c0.333-0.578,0.717-1.13,1.145-1.639
		c1.476-1.78,3.154-3.341,5.107-4.593c0.702-0.454,1.411-0.892,2.12-1.337c0.812-0.512,1.623-1.03,2.427-1.55
		c2.547-1.648,4.532-3.809,5.928-6.502c0.671-1.301,1.303-2.622,1.978-3.912c0.718-1.367,1.457-2.722,2.219-4.067
		c0.221-0.393,0.542-0.738,0.843-1.084c0.181-0.216,0.407-0.395,0.652-0.625c0.358,0.292,0.672,0.56,0.993,0.814
		c1.566,1.255,3.11,2.539,4.706,3.75c2.57,1.959,5.385,3.497,8.407,4.66c1.834,0.701,3.652,1.438,5.479,2.158
		c0.232,0.089,0.464,0.193,0.712,0.236c0.798,0.13,1.588-0.576,1.583-1.391c-0.003-0.365-0.161-0.66-0.459-0.839
		c-0.283-0.176-0.588-0.318-0.896-0.439c-2.015-0.813-4.023-1.636-6.049-2.42c-2.191-0.854-4.236-1.972-6.16-3.311
		c-8.094-5.646-14.604-12.708-19.184-21.478c-1.448-2.77-2.769-5.612-4.101-8.443c-1.461-3.1-2.848-6.226-4.291-9.335
		c-1.024-2.199-2.159-4.33-3.399-6.42c-2.71-4.542-6.344-8.149-10.854-10.9c-2.072-1.267-4.217-2.376-6.434-3.363
		c-2.938-1.313-5.83-2.722-8.579-4.39c-2.437-1.482-4.719-3.161-6.851-5.049c-2.58-2.284-4.528-4.997-5.834-8.192
		c-1.91-4.688-3.483-9.485-4.634-14.41c-1.064-4.52-1.767-9.099-2.083-13.734c-0.056-0.835-0.137-1.661-0.245-2.487
		c-0.228-1.675,0.321-3.14,1.253-4.471c0.749-1.063,1.802-1.334,2.977-0.768c0.517,0.254,1,0.615,1.42,1.008
		c0.839,0.781,1.401,1.754,1.754,2.851c0.201,0.635,0.39,1.281,0.663,1.885c0.285,0.628,0.954,0.856,1.59,0.64
		c0.587-0.2,0.994-0.876,0.82-1.505c-0.533-1.943-1.219-3.82-2.577-5.373c-1.013-1.158-2.223-2.003-3.727-2.419
		c-1.504-0.41-2.825-0.063-3.955,0.949C37.112,157.521,36.645,158.171,36.017,158.879 M53.572,112.207
		c0.045,1.038,0.055,2.071-0.125,3.099c-0.041,0.248-0.098,0.494-0.105,0.741c-0.021,0.766,0.503,1.356,1.258,1.436
		c0.693,0.076,1.088-0.245,1.294-1.043c0.019-0.082,0.043-0.159,0.057-0.244c0.236-1.529,0.32-3.063,0.091-4.595
		c-0.081-0.521-0.277-1.05-0.528-1.518c-0.375-0.695-1.039-0.962-1.801-0.812c-0.318,0.067-0.644,0.181-0.936,0.325
		c-0.81,0.423-0.947,1.326-0.28,1.961C52.762,111.803,53.127,111.941,53.572,112.207 M12.971,130.363
		c0.077,0.576,0.156,1.065,0.213,1.558c0.028,0.246-0.007,0.502,0.022,0.751c0.079,0.749,0.595,1.183,1.361,1.15
		c0.704-0.034,1.163-0.448,1.197-1.181c0.056-1.004-0.009-2.011-0.375-2.96c-0.162-0.421-0.384-0.843-0.674-1.185
		c-0.648-0.764-1.513-1.019-2.482-0.813c-0.607,0.124-0.987,0.644-1.004,1.27c-0.014,0.58,0.293,1.039,0.866,1.231
		C12.326,130.266,12.576,130.286,12.971,130.363"/>
</g>
<g>
	<path fill="#4D0B3A" d="M324.804,210.417c0.15-0.22,0.23-0.41,0.369-0.541c0.396-0.369,0.83-0.7,1.225-1.072
		c3.004-2.845,4.887-6.319,5.764-10.348c1.008-4.654,0.699-9.23-1.088-13.648c-1.943-4.845-5.357-8.301-10.217-10.276
		c-0.227-0.094-0.465-0.195-0.689-0.301c-0.029-0.013-0.055-0.057-0.148-0.162c0.031-0.206,0.031-0.497,0.113-0.765
		c1.127-4.035,1.797-8.146,2.221-12.308c0.373-3.656,0.59-7.325,0.742-10.995c0.143-3.676,0.279-7.351,0.514-11.015
		c0.486-7.38,1.346-14.718,2.961-21.949c1.527-6.871,3.736-13.507,6.906-19.811c0.473-0.933,0.971-1.825,1.561-2.687
		c0.418-0.619,0.721-1.313,1.131-1.949c2.156-3.392,4.625-6.542,7.412-9.447c0.314-0.333,0.625-0.672,0.938-1.008
		c0.088-0.093,0.137-0.233,0.244-0.276c1.115-0.478,1.746-1.481,2.584-2.276c0.844-0.809,1.768-1.527,2.67-2.266
		c0.908-0.738,1.836-1.453,2.75-2.176c0.061-0.051,0.131-0.122,0.201-0.15c0.959-0.344,1.678-1.067,2.521-1.577
		c5.154-3.091,10.35-6.12,15.779-8.716c2.111-1.004,4.256-1.925,6.305-2.841c0.85,0.207,1.57,0.382,2.301,0.567
		c4.713,1.235,8.168,4.046,10.346,8.407c1.129,2.262,1.777,4.676,2.074,7.182c0.643,5.431-0.168,10.653-2.234,15.694
		c-0.158,0.387-0.34,0.76-0.514,1.157c-0.715,0.198-1.42,0.217-2.123,0.28c-2.881,0.237-5.697,0.805-8.428,1.78
		c-3.146,1.123-5.973,2.787-8.471,5.001c-0.432,0.384-0.912,0.722-1.371,1.084c-0.1,0.077-0.211,0.14-0.285,0.24
		c-1.5,2.098-3.275,3.988-4.697,6.166c-2.256,3.48-4.229,7.098-5.715,10.979c-0.35,0.93-0.848,1.818-1,2.822
		c-0.027,0.159-0.111,0.309-0.182,0.461c-1.535,3.194-2.373,6.584-2.916,10.068c-0.52,3.344-0.738,6.722-0.982,10.093
		c-0.176,2.417-0.414,4.826-0.621,7.242c-0.207,2.367-0.404,4.741-0.619,7.111c-0.295,3.366-0.578,6.74-0.928,10.103
		c-0.318,3.114-0.67,6.227-1.09,9.327c-0.615,4.637-1.295,9.261-2.504,13.79c-0.793,2.951-1.824,5.813-3.289,8.505
		c-1.418,2.599-3.201,4.898-5.52,6.742c-3.574,2.827-7.607,4.282-12.195,4.06c-0.379-0.018-0.75-0.062-1.133-0.115
		C325.286,210.57,325.091,210.499,324.804,210.417"/>
</g>
<g>
	<path fill="#8BC641" d="M358.315,128.016c0.279,0.59,0.438,0.872,0.555,1.175c2.223,5.647,3.957,11.435,5.285,17.352
		c1.105,4.977,1.938,10.001,2.449,15.074c0.6,5.99,0.906,11.992,0.752,18.017c-0.166,5.771-0.709,11.502-1.936,17.156
		c-2.389,10.929-7.15,20.622-14.873,28.788c-5.092,5.376-10.959,9.653-17.822,12.508c-2.238,0.933-4.527,1.715-6.914,2.18
		c-6.953,1.356-13.076-0.373-18.375-5.034c-2.438-2.147-4.334-4.736-5.916-7.569c-2.084-3.746-3.508-7.75-4.541-11.896
		c-0.916-3.623-1.375-7.31-1.416-11.035c-0.043-5.958,0.934-11.727,3.414-17.188c1.232-2.69,2.822-5.116,4.998-7.143
		c2.17-2.033,4.672-3.463,7.594-4.171c5.197-1.258,12.045,0.683,15.631,6.264c1.303,2.035,2.139,4.248,2.543,6.617
		c0.764,4.546,0.143,8.901-1.877,13.051c-1.043,2.129-2.439,3.986-4.27,5.498c-0.992,0.826-1.662,1.865-2.154,3.032
		c-0.361,0.858-0.035,1.593,0.885,1.856c0.883,0.251,1.785,0.451,2.699,0.572c4.104,0.549,7.979-0.176,11.637-2.095
		c4.467-2.342,7.824-5.793,10.133-10.275c1.512-2.951,2.535-6.081,3.32-9.294c1.072-4.383,1.916-8.809,2.555-13.273
		c0.645-4.467,1.133-8.948,1.512-13.44c0.326-3.83,0.645-7.661,0.992-11.482c0.271-2.83,0.602-5.649,0.863-8.475
		c0.229-2.457,0.395-4.915,0.602-7.367c0.219-2.666,0.549-5.316,1.24-7.911C357.987,129.105,358.11,128.71,358.315,128.016"/>
</g>
<g>
	<path fill="#8BC641" d="M382.538,60.149c0.949-0.273,1.9-0.566,2.857-0.813c3.164-0.817,6.371-1.328,9.646-1.42
		c5.799-0.159,11.273,1.078,16.34,3.956c2.893,1.639,4.982,4.019,6.436,6.987c1.09,2.233,1.711,4.602,2.031,7.066
		c0.418,3.31,0.213,6.583-0.549,9.825c-0.191,0.85-0.469,1.693-0.799,2.499c-1.215,2.95-3.359,4.92-6.4,5.918
		c-1.92,0.628-3.922,0.869-5.916,0.938c-1.547,0.053-3.096,0-4.635-0.033c-2.219-0.045-4.428-0.13-6.633-0.175
		c-0.748-0.02-1.494-0.09-2.195-0.185c-0.189-0.382,0.012-0.633,0.102-0.887c1.83-4.801,2.51-9.771,2.148-14.879
		c-0.24-3.489-1.086-6.841-2.734-9.951c-2.008-3.789-4.943-6.581-8.922-8.223c-0.271-0.111-0.523-0.236-0.777-0.36
		C382.538,60.328,382.538,60.238,382.538,60.149"/>
</g>
<g>
	<path fill="#4D0B3A" d="M278.239,80.131c0.119-0.505,0.205-0.91,0.33-1.305c3.199-10.635,9.125-19.421,17.822-26.319
		c0.998-0.788,0.998-0.797,2.248-0.911c1.416-0.134,2.836-0.201,4.211,0.266c2.803,0.95,5.318,2.397,7.461,4.461
		c3.201,3.085,5.086,6.88,5.959,11.206c0.744,3.693,0.645,7.384-0.166,11.061c-0.068,0.324-0.152,0.648-0.213,0.979
		c-0.045,0.284-0.068,0.576-0.104,0.838c-0.711,0.998-1.412,1.979-2.174,3.032c-0.221-0.036-0.504-0.048-0.775-0.13
		c-3.762-1.157-7.588-2.008-11.459-2.593c-5.805-0.869-11.615-1.324-17.479-0.923c-1.539,0.104-3.08,0.227-4.611,0.336
		C278.964,80.148,278.636,80.131,278.239,80.131"/>
</g>
<g>
	<path fill="#8BC641" d="M318.985,78.088c0.072-0.683,0.113-1.22,0.18-1.754c0.531-4.722,0.139-9.339-1.607-13.79
		c-2-5.133-5.379-9.098-10.285-11.659c-1.771-0.919-3.602-1.774-5.652-1.935c-0.063-0.003-0.133-0.082-0.201-0.128
		c-0.074-0.236,0.139-0.267,0.268-0.337c0.184-0.098,0.377-0.197,0.586-0.24c1.279-0.255,2.377-0.92,3.555-1.453
		c3.936-1.796,8.064-2.951,12.361-3.463c1.654-0.196,3.307-0.385,4.994-0.223c1.318,0.13,2.666,0.061,4.006,0.106
		c1.609,0.055,3.129,0.44,4.453,1.427c0.193,0.146,0.434,0.303,0.672,0.327c0.613,0.07,1.074,0.428,1.551,0.757
		c3.324,2.32,5.398,5.512,6.479,9.385c0.236,0.878,0.516,1.76,0.391,2.708c-0.031,0.271,0.102,0.566,0.182,0.85
		c0.256,0.986,0.307,1.947-0.018,2.951c-0.258,0.786-0.324,1.637-0.52,2.445c-0.355,1.465-0.916,2.852-1.604,4.195
		c-0.801,1.552-1.914,2.842-3.227,3.953c-0.408,0.351-0.875,0.643-1.34,0.908c-1.613,0.91-3.352,1.503-5.131,1.98
		c-1.57,0.417-3.154,0.813-4.725,1.199c-1.668,0.41-3.295,0.927-4.852,1.639C319.39,77.984,319.274,78.005,318.985,78.088"/>
</g>
<g>
	<path fill="#4D0B3A" d="M369.327,107.155c0.457,0.271,0.457,0.734,0.574,1.11c1.014,3.441,2.064,6.873,2.998,10.339
		c1.559,5.762,2.799,11.6,3.734,17.495c0.605,3.754,1.043,7.525,1.375,11.313c0.537,6.085,0.605,12.178,0.4,18.272
		c-0.107,3.38-0.383,6.751-0.633,10.125c-0.141,1.872-0.324,3.741-0.588,5.601c-0.396,2.781-1.086,5.485-2.238,8.055
		c-0.988,2.193-2.291,4.17-4.029,5.838c-0.477,0.449-0.477,0.443-1.258,0.598c0.074-0.308,0.104-0.581,0.184-0.844
		c1.068-3.515,2.168-7.013,3.186-10.54c1.256-4.337,2.193-8.744,2.84-13.209c0.449-3.061,0.689-6.14,0.779-9.229
		c0.045-1.671,0.123-3.339,0.141-5.012c0.016-0.998-0.006-2.003-0.111-2.997c-0.137-1.399-0.615-2.68-1.629-3.711
		c-1.371-1.401-2.973-1.794-4.809-1.092c-0.654,0.251-1.279,0.594-2.006,0.936c-0.006-0.234-0.055-0.425-0.012-0.597
		c0.613-2.56,1.039-5.151,1.326-7.768c0.434-3.87,0.51-7.747,0.25-11.632c-0.25-3.755-0.744-7.476-1.619-11.139
		c-0.557-2.268-1.197-4.521-1.859-6.758c-0.182-0.623-0.176-1.106,0.225-1.626c0.744-0.951,1.445-1.939,2.186-2.902
		C368.909,107.556,369.128,107.365,369.327,107.155"/>
</g>
<g>
	<path fill="#4D0B3A" d="M350.841,72.906c-0.549,0.947-1.393,1.5-2.166,2.129c-1.074,0.867-2.137,1.741-3.236,2.646
		c-0.141-0.078-0.301-0.13-0.412-0.236c-1.719-1.76-3.43-3.526-5.139-5.297c-0.082-0.086-0.129-0.207-0.23-0.375
		c1.82-2.561,2.961-5.435,3.537-8.496c0.146-0.007,0.213-0.023,0.227-0.007C345.892,66.468,348.345,69.667,350.841,72.906"/>
</g>
<g>
	<path fill="#FFFFFF" d="M209.005,208.039c0.052-1.248,0.131-2.75,0.121-4.274c-0.297-4.901-0.757-7.652-0.757-7.652
		s2.053,1.94,5.636,5.731c1.504,1.594,3.709,3.685,5.713,5.523c3.775,3.478,7.855,6.616,12.239,9.284
		c1.208,0.727,2.377,1.395,3.374,1.871c16.58,7.957,35.215,10.251,53.057,9.994c0.539-0.018,1.094-0.012,1.582-0.018
		c1.266,0.278,1.176,0.717,1.389,1.096c1.664,2.813,3.461,5.592,4.375,8.417c0.148,0.48,0.428,0.946,0.619,1.419
		c-16.277,1.811-32.289,1.042-48.195-3.395C231.394,231.352,220.612,222.173,209.005,208.039"/>
	<path fill="#FFFFFF" d="M280.399,240.793c-11.348,0-21.928-1.412-32.363-4.322c-17.527-4.892-28.417-14.789-39.379-28.145
		l-0.115-0.131l0.037-0.834c0.05-1.097,0.104-2.341,0.099-3.596c-0.293-4.79-0.751-7.552-0.757-7.579l-0.222-1.335l0.984,0.931
		c0.018,0.018,2.098,1.995,5.649,5.747c1.272,1.345,3.239,3.245,5.692,5.506c3.861,3.561,7.962,6.664,12.175,9.227
		c1.321,0.806,2.446,1.427,3.325,1.849c13.977,6.71,30.41,9.973,50.25,9.973c0.877,0,1.74-0.01,2.607-0.019
		c0.338-0.015,0.691-0.018,1.035-0.02l0.59-0.007l0.064,0.012c1.158,0.261,1.422,0.688,1.602,1.144
		c0.027,0.055,0.045,0.115,0.082,0.17l0.721,1.203c1.412,2.379,2.877,4.837,3.68,7.303c0.092,0.246,0.203,0.49,0.318,0.732
		c0.109,0.224,0.219,0.443,0.305,0.664l0.207,0.552l-0.588,0.06C290.956,240.487,285.571,240.793,280.399,240.793z M209.464,207.884
		c10.817,13.154,21.579,22.899,38.81,27.715c10.352,2.883,20.871,4.288,32.125,4.288c4.947,0,10.086-0.284,15.271-0.842
		c-0.006-0.016-0.012-0.032-0.018-0.05c-0.119-0.268-0.262-0.547-0.357-0.842c-0.766-2.369-2.205-4.785-3.605-7.118l-0.723-1.213
		c-0.045-0.092-0.094-0.189-0.127-0.284c-0.1-0.229-0.18-0.416-0.924-0.59l-0.5,0.006c-0.33,0.002-0.674,0.003-1.006,0.02
		c-0.889,0.012-1.76,0.018-2.637,0.018c-19.977,0-36.545-3.291-50.643-10.061c-0.906-0.435-2.052-1.074-3.411-1.89
		c-4.268-2.595-8.404-5.736-12.31-9.338c-2.504-2.306-4.436-4.172-5.734-5.548c-2.14-2.261-3.742-3.866-4.672-4.791
		c0.167,1.279,0.4,3.457,0.58,6.371c0.007,1.306-0.052,2.561-0.1,3.669L209.464,207.884z"/>
</g>
<g>
	<path fill="#FFFFFF" d="M292.521,177.865c-0.434,0.805-1.508,1.027-2.201,0.436c-0.012-0.005-0.012-0.008-0.018-0.011
		c-4.521-3.939-8.736-8.257-13.041-12.414c-0.947-0.893-0.98-1.465-0.635-1.996c2.346-3.635,4.902-7.187,7.682-10.56
		c1.992-2.433,4.117-4.778,6.324-7.047c0.035-0.04,0.084-0.086,0.121-0.128c0.549-0.562,0.561-1.455,0.018-2.022
		c-1.436-1.514-2.855-3.023-4.328-4.597c-0.191-0.2-0.439-0.351-0.711-0.416c-3.086-0.775-6.006-1.426-9.082-2.103
		c-0.465-0.1-0.949,0.033-1.314,0.354c-0.23,0.216-0.467,0.445-0.689,0.676c-6.51,7.236-12.006,14.635-17.014,22.975
		c-0.059,0.104-0.113,0.216-0.154,0.328c-0.311,0.679-1.066,1.033-1.771,0.801c-0.117-0.036-0.223-0.072-0.33-0.122
		c-9.141-4.384-16.99-9.574-24.916-15.868c-7.087-5.627-10.397-13.643-17.099-20.138c-0.315-0.321-0.59-0.695-0.873-1.047
		c-0.027-0.23-0.107-0.484-0.06-0.591c6.938-12.154,15.088-21.28,26.511-29.432c0.086-0.062,0.307-0.039,0.58-0.074
		c0.303,0.293,0.598,0.532,0.727,0.722c3.699,4.969,6.598,9.154,9.018,14.867c0.248,0.738,0.23,1.26-0.158,1.518
		c-0.313,0.21-0.574,0.489-0.855,0.74c-5.904,5.175-10.959,10.953-15.762,17.139c-0.25,0.327-0.501,0.603-0.713,1.001
		c-0.167,0.333-0.181,0.729-0.069,1.086c0.058,0.189,0.118,0.345,0.214,0.47c2.292,2.979,6.668,5.142,10.616,8.003
		c0.152,0.106,0.313,0.21,0.473,0.313c0.59,0.356,1.352,0.269,1.813-0.236c0.795-0.874,1.305-1.931,2.053-2.825
		c0.982-1.19,1.9-2.434,2.883-3.62c0.99-1.189,1.994-2.355,3.027-3.499c1.027-1.142,2.084-2.261,3.16-3.361
		c1.068-1.096,2.156-2.168,3.264-3.221c0.91-0.854,1.826-1.697,2.723-2.495c0.385-0.334,0.881-0.357,1.381-0.305
		c13.297,1.45,19.906,3.191,32.215,9.483c0.201,0.101,0.408,0.181,0.566,0.337c0.51,0.481,1.082,1.001,1.574,1.515
		c5.686,5.89,10.98,11.389,15.393,17.506c1.674,2.229,1.535,1.878,0.506,2.745c-7.813,7.029-14.301,14.372-19.98,23.247
		C293.226,176.602,292.888,177.207,292.521,177.865"/>
	<path fill="#FFFFFF" d="M291.235,179.09c-0.453,0-0.879-0.157-1.223-0.446c-3.277-2.871-6.453-5.975-9.514-8.978
		c-1.186-1.159-2.373-2.316-3.553-3.46c-0.627-0.597-1.377-1.509-0.695-2.571c2.467-3.829,5.059-7.395,7.693-10.602
		c1.979-2.396,4.109-4.779,6.357-7.076l0.135-0.134c0.379-0.384,0.379-0.994,0.006-1.387c-1.438-1.515-2.852-3.023-4.334-4.598
		c-0.135-0.139-0.311-0.244-0.496-0.291c-2.973-0.748-5.783-1.376-9.061-2.096c-0.32-0.069-0.658,0.023-0.91,0.244
		c-0.229,0.212-0.447,0.432-0.674,0.659c-6.541,7.269-11.938,14.546-16.953,22.894c-0.035,0.076-0.092,0.174-0.127,0.271
		c-0.387,0.88-1.42,1.35-2.326,1.054c-0.119-0.041-0.26-0.084-0.369-0.144c-8.525-4.087-16.48-9.145-25.014-15.925
		c-3.953-3.139-6.679-6.911-9.561-10.908c-2.26-3.13-4.596-6.368-7.58-9.261c-0.257-0.262-0.485-0.551-0.705-0.834l-0.287-0.354
		l-0.015-0.132c-0.007-0.068-0.021-0.134-0.027-0.201c-0.044-0.216-0.079-0.439,0.021-0.644
		c7.045-12.346,15.256-21.469,26.653-29.596c0.174-0.115,0.35-0.124,0.543-0.139c0.068-0.004,0.154-0.007,0.25-0.018l0.215-0.027
		l0.156,0.156c0.1,0.101,0.205,0.197,0.301,0.283c0.191,0.183,0.369,0.339,0.484,0.5c3.455,4.649,6.52,8.986,9.053,14.947
		c0.344,1.019,0.238,1.706-0.322,2.075c-0.18,0.124-0.355,0.285-0.545,0.455c-0.084,0.085-0.178,0.168-0.273,0.248
		c-5.195,4.565-10.188,9.992-15.691,17.08c-0.076,0.093-0.145,0.189-0.226,0.284c-0.162,0.206-0.321,0.402-0.445,0.644
		c-0.108,0.216-0.127,0.487-0.044,0.738c0.044,0.145,0.088,0.257,0.15,0.333c1.523,1.991,4.074,3.642,6.779,5.392
		c1.227,0.799,2.506,1.624,3.738,2.518c0.141,0.102,0.285,0.199,0.445,0.295c0.395,0.242,0.936,0.174,1.23-0.152
		c0.42-0.449,0.738-0.947,1.09-1.477c0.289-0.445,0.6-0.904,0.947-1.335c0.51-0.599,0.986-1.214,1.465-1.829
		c0.473-0.603,0.945-1.203,1.432-1.79c0.961-1.157,1.98-2.342,3.029-3.511c1.002-1.118,2.076-2.255,3.162-3.374
		c1.068-1.083,2.174-2.173,3.295-3.236c0.904-0.858,1.83-1.705,2.73-2.509c0.424-0.369,1.037-0.487,1.734-0.413
		c12.883,1.408,19.697,3.054,32.373,9.532l0.111,0.057c0.184,0.085,0.385,0.184,0.547,0.351l0.318,0.294
		c0.426,0.401,0.877,0.822,1.285,1.236c5.363,5.559,10.912,11.307,15.43,17.557l0.301,0.396c1.168,1.55,1.445,1.917,0.441,2.713
		c-0.1,0.071-0.199,0.15-0.313,0.246c-8.17,7.356-14.49,14.714-19.896,23.145c-0.338,0.588-0.68,1.188-1.035,1.843
		C292.589,178.704,291.931,179.09,291.235,179.09z M276.331,136.519c0.137,0,0.277,0.022,0.414,0.047
		c3.289,0.721,6.1,1.352,9.094,2.105c0.342,0.086,0.68,0.282,0.926,0.546c1.477,1.574,2.906,3.082,4.346,4.596
		c0.703,0.748,0.688,1.911-0.033,2.652l-0.07,0.074c-2.275,2.331-4.4,4.694-6.348,7.069c-2.623,3.183-8.01,11.069-7.092,11.942
		c1.193,1.146,2.373,2.306,3.566,3.47c3.051,2.99,6.209,6.086,9.469,8.927c0.469,0.404,1.234,0.235,1.523-0.296
		c0.361-0.663,0.705-1.275,1.07-1.883c5.455-8.521,11.824-15.933,20.063-23.353c0.141-0.114,0.244-0.203,0.344-0.282
		c0.117-0.084,0.258-0.199,0.283-0.242c-0.037-0.081-0.41-0.579-0.891-1.203l-0.309-0.41c-4.469-6.205-9.998-11.926-15.357-17.46
		c-0.379-0.406-0.82-0.816-1.242-1.207l-0.311-0.3c-0.066-0.071-0.195-0.125-0.324-0.19l-0.133-0.07
		c-12.545-6.407-19.301-8.042-32.053-9.438c-0.438-0.045-0.82-0.003-1.033,0.194c-0.895,0.799-1.809,1.636-2.705,2.488
		c-1.121,1.055-2.209,2.134-3.27,3.209c-1.082,1.115-2.141,2.24-3.145,3.348c-1.049,1.161-2.053,2.333-3.006,3.483
		c-0.482,0.58-0.955,1.173-1.414,1.767c-0.486,0.622-0.977,1.245-1.482,1.854c-0.32,0.389-0.602,0.809-0.896,1.254
		c-0.346,0.533-0.709,1.084-1.164,1.586c-0.574,0.638-1.625,0.777-2.381,0.318c-0.172-0.112-0.338-0.219-0.502-0.335
		c-1.213-0.88-2.48-1.696-3.701-2.489c-2.76-1.793-5.383-3.489-7.013-5.606c-0.143-0.186-0.219-0.399-0.284-0.605
		c-0.152-0.475-0.115-1.001,0.099-1.432c0.168-0.319,0.358-0.561,0.543-0.794c0.064-0.086,0.138-0.174,0.209-0.267
		c5.544-7.145,10.574-12.611,15.83-17.214c0.086-0.076,0.166-0.15,0.252-0.229c0.201-0.188,0.404-0.383,0.65-0.549
		c0.229-0.145,0.082-0.687-0.023-0.991c-2.469-5.837-5.516-10.13-8.947-14.74c-0.059-0.093-0.209-0.234-0.355-0.366
		c-0.057-0.053-0.111-0.104-0.17-0.159c-0.029,0.003-0.057,0.005-0.088,0.005c-0.043,0.003-0.084,0.006-0.115,0.009
		c-11.23,8.02-19.343,17.021-26.278,29.168c0,0.039,0.014,0.083,0.02,0.134c0.009,0.041,0.015,0.083,0.021,0.129l0.121,0.155
		c0.209,0.262,0.424,0.525,0.646,0.759c3.029,2.934,5.391,6.204,7.669,9.372c2.846,3.941,5.537,7.665,9.389,10.726
		c8.484,6.735,16.38,11.763,24.835,15.816c0.082,0.038,0.172,0.069,0.262,0.1c0.49,0.16,1.008-0.094,1.211-0.553
		c0.059-0.123,0.111-0.245,0.182-0.366c5.055-8.407,10.469-15.731,17.076-23.057c0.24-0.254,0.482-0.486,0.721-0.706
		C275.392,136.702,275.854,136.519,276.331,136.519z"/>
</g>
<g>
	<path fill="#FFFFFF" d="M249.19,175.73c0.352,0.372,0.623,0.771,0.641,1.06c0.045,0.408-0.17,0.735-0.289,1.096
		c-2.313,7.277-3.67,14.865-3.896,22.504c-0.006,0.21-0.006,0.423-0.012,0.63c-0.012,0.66,0.318,1.28,0.885,1.626
		c2.488,1.515,4.902,2.906,7.371,4.214c0.586,0.313,1.369,0.651,2.072,0.839c2.398,0.638,4.795,1.189,7.355,1.623
		c0.121-0.281,0.295-0.488,0.289-0.735c-0.039-1.031-0.115-2.075-0.139-3.114c0-0.042,0-0.093,0-0.14
		c0.246-7.622,1.156-13.94,3.023-21.339c0.441-1.454-0.061-1.29,3.27-1.331c5.531-0.073,11.061-0.337,16.586-0.585
		c0.822-0.037,1.701-0.031,2.574-0.044c0.246,0.2,0.477,0.327,0.455,0.378c-4.873,13.586-5.23,24.903-0.273,38.451
		c0.088,0.185-0.041,0.375-0.074,0.601c-0.992,0.065-1.859,0.145-2.748,0.16c-9.186-0.065-17.979-0.877-27.035-2.376
		c-1.648-0.311-3.09-0.712-4.535-1.377c-10.426-5.045-19.553-10.392-28.284-17.979c-0.246-0.225-0.474-0.451-0.727-0.72
		c-0.349-0.358-0.543-0.849-0.52-1.347c0.259-8.226,1.278-15.931,3.132-23.942c0.131-0.565-0.006-1.166-0.389-1.61
		c-2.229-2.635-5.863-7.268-5.979-7.353c-0.152-0.099-3.649-1.771-5.175-2.349c-0.776-0.294-1.641,0.151-1.862,0.954
		c-1.66,5.922-3.226,17.242-3.699,20.823c-0.042,0.347-0.505,0.442-0.677,0.133c-1.133-2.005-3.883-6.594-6.743-8.979
		c-0.365-0.304-0.779-0.703-1.173-1.086c-0.149-0.146-0.271-0.316-0.364-0.502c-0.128-0.264-0.229-0.446-0.229-0.497
		c-0.387-11.688,0.35-30.49,4.725-36.132c0,0,20.657,14.883,22.587,16.406C236.298,159.175,248.806,175.35,249.19,175.73"/>
	<path fill="#FFFFFF" d="M286.28,222.075h-0.006c-8.928-0.064-17.803-0.844-27.111-2.383c-1.838-0.351-3.277-0.782-4.648-1.414
		c-12.051-5.836-20.54-11.226-28.392-18.045c-0.258-0.242-0.496-0.478-0.751-0.75c-0.428-0.447-0.664-1.056-0.652-1.674
		c0.27-8.25,1.264-15.883,3.149-24.031c0.099-0.428-0.006-0.882-0.289-1.214c-1.326-1.569-3.132-3.813-4.438-5.451
		c-0.676-0.843-1.315-1.642-1.488-1.832c-0.436-0.231-3.588-1.737-5.042-2.286c-0.519-0.199-1.119,0.117-1.272,0.649
		c-1.655,5.916-3.237,17.386-3.681,20.76c-0.057,0.415-0.401,0.72-0.814,0.72c-0.292,0-0.567-0.161-0.707-0.419
		c-1.06-1.881-3.819-6.506-6.643-8.854c-0.378-0.318-0.793-0.723-1.195-1.112c-0.186-0.179-0.336-0.392-0.456-0.623l-0.058-0.113
		c-0.15-0.313-0.215-0.428-0.215-0.566c-0.099-2.974-0.801-29.191,4.818-36.432l0.273-0.342l0.349,0.253
		c0.852,0.609,20.688,14.903,22.609,16.416c3.996,3.15,10.417,10.246,19.095,21.093c0.449,0.569,0.732,0.925,0.797,0.99
		c0.324,0.346,0.74,0.853,0.773,1.333c0.035,0.399-0.1,0.73-0.211,1.001c-0.029,0.092-0.072,0.18-0.102,0.271
		c-2.355,7.405-3.658,14.936-3.871,22.381l-0.014,0.629c-0.012,0.496,0.244,0.966,0.672,1.223c2.637,1.612,5.045,2.984,7.342,4.202
		c0.654,0.345,1.387,0.646,1.977,0.802c2.529,0.676,4.76,1.173,6.99,1.557c0.037-0.083,0.09-0.177,0.084-0.216
		c-0.023-0.381-0.041-0.767-0.053-1.154c-0.031-0.653-0.076-1.306-0.09-1.963v-0.151c0.25-7.569,1.156-13.981,3.029-21.453
		c0.066-0.191,0.105-0.338,0.141-0.464c0.311-1.182,0.623-1.185,2.693-1.196l0.887-0.014c5.131-0.063,10.346-0.299,15.393-0.531
		l1.174-0.051c0.656-0.027,1.361-0.032,2.049-0.038l0.697-0.006l0.129,0.098c0.078,0.07,0.166,0.127,0.227,0.176
		c0.199,0.139,0.523,0.369,0.365,0.739c-4.988,13.919-5.072,24.969-0.27,38.113c0.129,0.247,0.045,0.499-0.012,0.67
		c-0.012,0.047-0.023,0.097-0.031,0.147l-0.059,0.364l-0.979,0.069c-0.744,0.055-1.441,0.106-2.158,0.119h-0.006V222.075z
		 M216.272,162.025c0.228,0,0.45,0.038,0.653,0.119c1.52,0.572,5.066,2.261,5.264,2.399c0.095,0.063,0.106,0.071,1.66,2.002
		c1.308,1.635,3.102,3.867,4.427,5.433c0.462,0.546,0.639,1.301,0.476,2.005c-1.871,8.088-2.868,15.669-3.125,23.854
		c-0.013,0.375,0.138,0.743,0.403,1.016c0.243,0.263,0.467,0.486,0.702,0.708c7.779,6.747,16.208,12.104,28.16,17.897
		c1.307,0.594,2.67,1.007,4.432,1.339c9.25,1.53,18.066,2.308,26.951,2.371c0.697-0.015,1.365-0.063,2.107-0.118l0.289-0.02
		c0.006-0.019,0.012-0.029,0.012-0.036c-4.854-13.252-4.811-24.416,0.162-38.447c-0.029-0.019-0.053-0.036-0.076-0.057l-0.387,0.003
		c-0.682,0.006-1.367,0.009-2.023,0.036l-1.162,0.053c-5.061,0.228-10.281,0.465-15.424,0.535l-0.887,0.008
		c-1.695,0.009-1.695,0.009-1.834,0.521c-0.035,0.136-0.078,0.293-0.133,0.478c-1.852,7.382-2.752,13.735-2.998,21.222v0.127
		c0.018,0.632,0.047,1.284,0.084,1.93c0.018,0.391,0.041,0.777,0.059,1.167c0.006,0.284-0.107,0.507-0.213,0.703
		c-0.037,0.069-0.07,0.141-0.1,0.218l-0.139,0.34l-0.359-0.06c-2.365-0.4-4.719-0.917-7.414-1.633
		c-0.93-0.25-1.82-0.695-2.152-0.874c-2.33-1.229-4.746-2.611-7.402-4.23c-0.695-0.427-1.115-1.198-1.098-2.017l0.016-0.635
		c0.209-7.533,1.531-15.149,3.91-22.632c0.035-0.117,0.084-0.227,0.129-0.342c0.084-0.222,0.168-0.398,0.15-0.579
		c-0.012-0.106-0.162-0.397-0.527-0.776c-0.064-0.067-0.258-0.308-0.857-1.056c-8.633-10.792-14.998-17.839-18.942-20.946
		c-1.768-1.394-19.429-14.127-22.212-16.132c-4.16,6.081-4.718,24.979-4.376,35.421c0.021,0.062,0.073,0.147,0.123,0.258
		l0.063,0.117c0.066,0.14,0.156,0.267,0.273,0.374c0.385,0.379,0.788,0.769,1.146,1.069c2.816,2.351,5.547,6.82,6.71,8.871
		c0.494-3.688,2.049-14.8,3.677-20.627C214.69,162.587,215.434,162.025,216.272,162.025z"/>
</g>
<g>
	<path fill="#FFFFFF" d="M278.733,80.782c0.682-0.079,1.102-0.103,1.479-0.111c15.988-0.299,28.818,22.79,36.785,33.665
		c2.668,3.714,5.002,7.965,6.973,12.042c0.488,1.018,0.689,1.741,0.537,2.338c-0.928,3.692-1.529,7.54-1.859,11.407
		c-0.018,0.215-0.1,0.369-0.129,0.519c-0.244-0.17-0.309-0.208-0.381-0.266c-0.08-0.063-0.145-0.144-0.217-0.226
		c-0.066-0.075-0.117-0.161-0.184-0.242c-0.166-0.243-0.336-0.484-0.506-0.732c-12.365-18.237-28.197-33.551-42.402-50.277
		c-0.035-0.041-0.096-0.083-0.146-0.118c-0.563-0.198-0.732-0.068-0.893,0.036c-0.66,0.418-1.311,0.847-1.955,1.289
		c-3.584,2.45-7.127,5.154-10.41,8.19c-0.566,0.525-1.361,0.622-2.857,0.193c-6.016-1.634-12.072-2.998-18.121-4.478
		c-0.518-0.137-1.049-0.305-1.824-0.531c0.023-0.224-0.023-0.393,0.066-0.47c0.229-0.191,0.52-0.343,0.789-0.504
		c10.967-5.829,21.678-9.498,33.881-11.556C277.714,80.901,278.114,80.854,278.733,80.782"/>
	<path fill="#FFFFFF" d="M322.778,141.386l-0.738-0.52c-0.1-0.07-0.143-0.105-0.207-0.149c-0.09-0.081-0.182-0.175-0.256-0.271
		c-0.076-0.087-0.146-0.18-0.207-0.266l-0.057-0.083c-0.148-0.222-0.307-0.445-0.449-0.664
		c-8.379-12.347-18.518-23.553-28.338-34.388c-4.646-5.147-9.475-10.472-14.051-15.854v-0.003c-0.301-0.098-0.266-0.102-0.42-0.004
		c-0.686,0.429-1.316,0.855-1.961,1.293c-3.971,2.702-7.355,5.368-10.367,8.148c-0.727,0.668-1.664,0.766-3.287,0.298
		c-4.201-1.14-8.504-2.17-12.662-3.162c-1.811-0.434-3.629-0.868-5.436-1.31c-0.426-0.113-0.865-0.242-1.42-0.407l-0.783-0.233
		l0.035-0.375c0.01-0.057,0-0.11,0-0.154c0-0.16-0.006-0.428,0.219-0.616c0.211-0.179,0.455-0.315,0.68-0.449l0.172-0.101
		c11.045-5.871,21.846-9.559,34.033-11.613c0.381-0.049,0.777-0.098,1.387-0.169c0.727-0.083,1.164-0.106,1.535-0.116l0.322-0.003
		c13.617,0,24.717,16.233,32.826,28.097c1.439,2.101,2.799,4.09,4.02,5.761c2.369,3.291,4.723,7.365,7.008,12.11
		c0.578,1.205,0.752,1.969,0.572,2.646c-0.871,3.465-1.496,7.274-1.848,11.333c-0.016,0.209-0.07,0.369-0.115,0.488L322.778,141.386
		z M278.187,88.222c0.188,0,0.395,0.041,0.648,0.127l0.137,0.078c0.09,0.07,0.152,0.118,0.188,0.167
		c4.578,5.382,9.389,10.697,14.049,15.842c9.826,10.859,19.992,22.089,28.406,34.485c0.137,0.219,0.301,0.44,0.443,0.661
		l-0.314,0.338l0.371-0.261c0.035,0.047,0.078,0.093,0.107,0.142c0.355-3.999,0.977-7.768,1.855-11.195
		c0.105-0.442-0.055-1.048-0.514-2.028c-2.273-4.698-4.602-8.729-6.928-11.971c-1.238-1.682-2.598-3.676-4.043-5.784
		c-7.984-11.692-18.932-27.698-32.07-27.698l-0.305,0.002c-0.338,0.012-0.756,0.031-1.445,0.11c-0.609,0.069-1,0.119-1.359,0.166
		c-12.068,2.035-22.787,5.692-33.723,11.508l-0.164,0.098c-0.111,0.059-0.213,0.12-0.313,0.178c0.533,0.155,0.949,0.279,1.357,0.386
		c1.801,0.443,3.604,0.872,5.42,1.309c4.162,0.997,8.48,2.027,12.691,3.174c1.273,0.366,1.947,0.354,2.432-0.093
		c3.053-2.811,6.463-5.505,10.473-8.233c0.639-0.442,1.289-0.876,1.967-1.296C277.677,88.344,277.874,88.222,278.187,88.222z"/>
</g>
<g>
	<path fill="#4D0B3A" d="M318.249,40.611c-1.682,0.311-3.123,0.552-4.541,0.853c-3.701,0.768-7.223,2.057-10.629,3.689
		c-0.672,0.325-1.387,0.569-2.082,0.858c-0.332,0.139-0.635,0.127-0.963-0.025c-4.488-2.068-9.303-2.892-14.129-3.711
		c-5.355-0.908-10.652-2.061-15.742-4.011c-1.564-0.597-3.129-1.192-4.738-1.611c-0.281-0.074-0.561-0.183-0.842-0.279
		c-1.189-0.416-2.109-1.173-2.717-2.278c-0.355-0.66-0.668-1.344-0.979-2.027c-0.6-1.29-1.152-2.593-1.777-3.869
		c-0.57-1.169-1.281-2.249-2.139-3.23c-1.613-1.852-3.637-2.86-6.105-3.036c-2.676-0.191-5.346-0.043-7.994,0.334
		c-3.469,0.49-6.934,1.066-10.401,1.605c-3.633,0.569-7.191,1.465-10.705,2.587c-3.813,1.223-7.733,2.075-11.629,2.996
		c-1.709,0.401-3.396,0.878-5.07,1.382c-1.81,0.537-3.617,1.039-5.483,1.283c-1.874,0.248-3.747,0.293-5.614-0.105
		c-2.33-0.502-4.247-1.675-5.763-3.515c-0.16-0.195-0.311-0.396-0.462-0.595c-0.696-0.936-1.664-1.379-2.799-1.432
		c-0.625-0.028-1.261-0.028-1.878,0.04c-3.258,0.369-6.412,1.134-9.379,2.563c-1.246,0.597-2.479,1.209-3.698,1.847
		c-5.445,2.837-10.924,5.605-16.615,7.921c-0.506,0.204-1.002,0.428-1.509,0.616c-3.299,1.187-6.554,2.497-9.757,3.925
		c-1.182,0.528-2.392,1.017-3.682,1.2c-0.739,0.109-1.491,0.191-2.236,0.194c-1.321,0.006-2.433-0.555-3.332-1.495
		c-0.72-0.744-1.04-1.611-0.593-2.631c0.072-0.152,0.18-0.315,0.173-0.468c-0.047-0.909,0.485-1.575,0.963-2.252
		c1.343-1.913,2.687-3.828,4.065-5.711c2.674-3.653,6.017-6.594,9.745-9.121c4.213-2.849,8.789-4.963,13.568-6.656
		c4.773-1.688,9.667-2.927,14.605-4.008c5.06-1.106,10.133-2.116,15.252-2.921c3.917-0.613,7.85-1.117,11.782-1.623
		c4.727-0.61,9.481-0.945,14.234-1.128c5.055-0.197,10.112-0.21,15.155,0.079c5.055,0.286,10.073,0.888,15.051,1.775
		c7.127,1.264,14.084,3.117,20.939,5.449c11.703,3.987,22.795,9.287,33.465,15.522c5.414,3.163,10.674,6.557,15.814,10.144
		C317.417,39.966,317.739,40.223,318.249,40.611"/>
</g>
<g>
	<path fill="#FFFFFF" d="M155.282,337.942c2.59-7.13,5.183-14.254,7.771-21.381c2.749,1.001,5.503,1.926,8.258,2.775
		c3.078,0.951,5.205,1.701,6.397,2.379c1.185,0.677,2.07,1.73,2.677,3.192c0.601,1.456,0.712,3.07,0.3,4.845
		c-0.518,2.195-1.592,3.855-3.284,4.944c-1.696,1.092-3.598,1.354-5.656,0.776c-1.434-0.403-2.795-1.488-4.032-3.251
		c-0.912,2.988-1.821,5.982-2.731,8.971C161.75,340.195,158.512,339.116,155.282,337.942z M170.324,324.182
		c-0.051-0.015-0.104-0.032-0.153-0.047c-0.478,1.579-0.962,3.158-1.441,4.737c0.039,0.009,0.08,0.023,0.118,0.034
		c0.16,0.064,0.326,0.12,0.487,0.182c0.76,0.228,1.418,0.187,1.976-0.117c0.544-0.315,0.933-0.869,1.158-1.66
		c0.247-0.861,0.215-1.518-0.092-1.971C172.069,324.891,171.386,324.509,170.324,324.182z"/>
</g>
<g>
	<path fill="#FFFFFF" d="M188.5,342.928c-0.623,1.202-1.263,2.398-1.907,3.596c-3.264-0.613-6.532-1.308-9.802-2.096
		c4.35-6.754,8.395-13.642,12.122-20.634c4.057,0.802,8.104,1.444,12.135,1.938c1.281,7.804,2.848,15.603,4.691,23.371
		c-3.195-0.269-6.407-0.618-9.624-1.05c-0.248-1.34-0.491-2.68-0.735-4.017C193.092,343.71,190.801,343.342,188.5,342.928z
		 M191.067,337.954c1.13,0.192,2.267,0.38,3.404,0.549c-0.293-1.921-0.573-3.838-0.83-5.759
		C192.797,334.487,191.938,336.227,191.067,337.954z"/>
</g>
<g>
	<path fill="#FFFFFF" d="M209.613,349.386c0.452-7.579,0.896-15.155,1.346-22.732c2.803,0.176,5.606,0.28,8.383,0.315
		c2.906,0.029,4.846,0.064,5.826,0.207c0.987,0.138,1.852,0.47,2.593,1.001c0.753,0.534,1.372,1.272,1.872,2.219
		c0.501,0.951,0.778,1.964,0.835,3.041c0.131,2.288-0.514,4.051-1.975,5.268c2.287,2.694,3.843,6.234,4.563,10.69
		c-3.234,0.201-6.495,0.321-9.77,0.354c0-0.07,0-0.138-0.009-0.21c-0.029-2.677-0.398-4.711-1.089-6.111
		c-0.686-1.404-1.629-2.102-2.858-2.113c-0.037,0-0.075,0-0.114-0.003c-0.03,2.813-0.056,5.621-0.08,8.435
		C215.98,349.704,212.801,349.588,209.613,349.386z M219.453,331.656c-0.047,0-0.098,0-0.147,0
		c-0.018,1.459-0.024,2.924-0.038,4.387c0.069,0.003,0.152,0.003,0.229,0.003c0.858,0.006,1.481-0.17,1.856-0.525
		c0.382-0.359,0.565-0.935,0.565-1.723C221.904,332.374,221.091,331.674,219.453,331.656z"/>
</g>
<g>
	<path fill="#FFFFFF" d="M245.196,344.328c-0.229,1.337-0.461,2.668-0.693,4.001c-3.115,0.389-6.256,0.698-9.412,0.926
		c1.963-7.758,3.604-15.538,4.947-23.334c3.885-0.44,7.729-1.019,11.553-1.728c3.414,7.086,7.1,14.088,11.043,20.981
		c-3,0.671-6.027,1.275-9.068,1.807c-0.619-1.206-1.23-2.414-1.832-3.625C249.565,343.719,247.384,344.042,245.196,344.328z
		 M246.071,338.818c1.074-0.149,2.162-0.31,3.236-0.481c-0.82-1.749-1.625-3.5-2.416-5.263
		C246.634,334.989,246.366,336.903,246.071,338.818z"/>
</g>
<g>
	<path fill="#FFFFFF" d="M282.802,339.457c-5.426,1.862-10.938,3.488-16.543,4.862c-1.783-7.375-3.576-14.753-5.359-22.131
		c2.619-0.646,5.234-1.349,7.809-2.119c1.604,5.452,3.207,10.909,4.813,16.361c2.498-0.741,4.984-1.538,7.439-2.388
		C281.565,335.85,282.179,337.65,282.802,339.457z"/>
</g>
<g>
	<path fill="#FFFFFF" d="M302.335,331.504c-5.143,2.435-10.422,4.644-15.789,6.619c-2.596-7.133-5.182-14.271-7.773-21.398
		c2.514-0.928,5.01-1.911,7.479-2.95c2.193,5.241,4.387,10.486,6.568,15.728c2.402-1.01,4.762-2.066,7.102-3.169
		C300.726,328.058,301.54,329.779,302.335,331.504z"/>
</g>
<g>
	<path fill="#FFFFFF" d="M311.175,320.542c2.25-1.243,4.465-2.545,6.656-3.885c0.984,1.626,1.977,3.252,2.967,4.877
		c-4.83,2.96-9.801,5.712-14.896,8.245c-3.348-6.809-6.707-13.609-10.057-20.412c4.484-2.232,8.863-4.656,13.121-7.266
		c0.986,1.626,1.98,3.251,2.975,4.878c-2.055,1.257-4.148,2.479-6.25,3.65c0.449,0.822,0.908,1.645,1.355,2.466
		c1.506-0.832,2.984-1.688,4.461-2.565c0.967,1.636,1.945,3.276,2.91,4.915c-1.525,0.904-3.055,1.784-4.602,2.651
		C310.267,318.908,310.72,319.728,311.175,320.542z"/>
</g>
<g>
	<path fill="#FFFFFF" d="M338.513,309.3c-4.482,3.48-9.127,6.761-13.904,9.842c-4.082-6.385-8.186-12.769-12.275-19.153
		c2.242-1.438,4.439-2.935,6.605-4.479c3.289,4.631,6.586,9.261,9.863,13.891c2.107-1.492,4.174-3.032,6.217-4.611
		C336.179,306.297,337.345,307.797,338.513,309.3z"/>
</g>
<g>
	<path fill="#FFFFFF" d="M344.247,273.492c1.842-1.938,3.623-3.916,5.361-5.935c2.148,1.833,4.291,3.67,6.43,5.506
		c1.869,1.595,3.184,2.804,3.93,3.619c0.75,0.818,1.426,1.815,1.99,2.999c0.568,1.181,0.875,2.398,0.922,3.646
		c0.029,1.252-0.17,2.475-0.615,3.66c-0.445,1.188-1.102,2.232-1.947,3.121c-1.078,1.131-2.416,1.969-3.98,2.489
		c-1.57,0.524-3.088,0.622-4.533,0.302c-1.459-0.316-2.787-0.904-3.99-1.751c-1.189-0.846-2.787-2.32-4.76-4.417
		c-1.955-2.066-3.91-4.131-5.865-6.197c1.943-1.826,3.832-3.695,5.688-5.611c2.533,2.438,5.066,4.879,7.594,7.315
		c0.666,0.644,1.186,1.054,1.574,1.23c0.387,0.18,0.715,0.13,0.982-0.149c0.313-0.334,0.361-0.713,0.131-1.14
		c-0.232-0.426-0.881-1.132-1.926-2.12C348.909,277.872,346.583,275.68,344.247,273.492z"/>
</g>
<g>
	<path fill="#FFFFFF" d="M370.403,266.904c1.854,1.359,3.709,2.717,5.566,4.077c-1.805,2.441-3.664,4.836-5.566,7.184
		c-5.912-4.766-11.803-9.535-17.701-14.298c1.205-1.481,2.377-2.979,3.531-4.5c2.887,0.396,5.793,0.725,8.721,0.993
		c-2.063-1.474-4.123-2.947-6.184-4.423c1.559-2.168,3.072-4.378,4.535-6.62c6.418,4.14,12.836,8.282,19.26,12.425
		c-1.275,1.938-2.566,3.849-3.9,5.741C375.896,267.343,373.136,267.149,370.403,266.904z"/>
</g>
<g>
	<path fill="#FFFFFF" d="M390.106,248.79c-1.451,2.684-2.98,5.322-4.559,7.924c-6.5-3.92-12.996-7.841-19.502-11.759
		c1.404-2.291,2.738-4.618,4.033-6.984C376.757,241.577,383.429,245.186,390.106,248.79z"/>
</g>
<g>
	<path fill="#FFFFFF" d="M379.999,216.158c6.422,4.547,12.705,9.327,18.846,14.351c-1.145,2.749-2.344,5.469-3.602,8.151
		c-7.91-1.023-15.73-2.329-23.459-3.908c1.236-2.394,2.416-4.824,3.537-7.284c2.594,0.402,5.178,0.774,7.783,1.116
		c-2.021-1.661-4.057-3.295-6.111-4.902C378.056,221.201,379.054,218.697,379.999,216.158z"/>
</g>
<g>
	<path fill="#FFFFFF" d="M400.097,209.699c0.738-2.54,1.424-5.107,2.066-7.694c1.838,0.452,3.691,0.91,5.539,1.365
		c-1.393,5.714-3.053,11.323-4.953,16.813c-7.176-2.479-14.35-4.955-21.523-7.435c1.676-4.841,3.135-9.781,4.363-14.819
		c1.844,0.452,3.697,0.911,5.553,1.364c-0.598,2.432-1.248,4.842-1.943,7.231c0.902,0.263,1.813,0.525,2.711,0.789
		c0.498-1.698,0.971-3.403,1.408-5.123c1.838,0.481,3.684,0.96,5.539,1.438c-0.473,1.774-0.949,3.534-1.463,5.282
		C398.292,209.179,399.187,209.439,400.097,209.699z"/>
</g>
<g>
	<path fill="#FFFFFF" d="M408.757,198.811c-7.416-1.635-14.826-3.271-22.24-4.902c0.592-2.714,1.115-5.447,1.576-8.209
		c0.473-2.875,0.799-4.812,1.088-5.777c0.287-0.967,0.75-1.782,1.391-2.455c0.641-0.674,1.465-1.189,2.48-1.544
		c1.012-0.352,2.057-0.479,3.131-0.367c2.279,0.231,3.92,1.166,4.895,2.832c3.01-1.887,6.75-2.908,11.258-2.938
		c-0.299,3.333-0.682,6.643-1.154,9.918c-0.078-0.009-0.133-0.021-0.207-0.027c-2.645-0.388-4.717-0.34-6.205,0.126
		c-1.484,0.468-2.326,1.294-2.518,2.51c-0.01,0.038-0.021,0.08-0.027,0.116c2.773,0.47,5.543,0.938,8.316,1.408
		C410.022,192.63,409.427,195.734,408.757,198.811z M392.733,186.331c-0.006,0.052-0.012,0.101-0.018,0.148
		c1.436,0.244,2.881,0.492,4.316,0.732c0.018-0.074,0.035-0.151,0.047-0.228c0.131-0.848,0.049-1.496-0.246-1.931
		c-0.289-0.437-0.834-0.712-1.602-0.832C393.819,184.009,392.999,184.715,392.733,186.331z"/>
</g>
<g>
	<path fill="#FFFFFF" d="M403.763,170.094c1.145-0.569,2.072-1.334,2.789-2.293c0.709-0.963,1.084-1.888,1.115-2.771
		c0.012-0.486-0.09-0.884-0.318-1.188c-0.232-0.304-0.543-0.461-0.922-0.473c-0.35-0.013-0.66,0.085-0.932,0.299
		c-0.271,0.209-0.51,0.534-0.732,0.976c-0.363,0.742-0.75,1.475-1.119,2.206c-0.824,1.591-1.752,2.702-2.766,3.352
		c-1.027,0.654-2.244,0.914-3.662,0.803c-5.154-0.434-7.416-3.683-7.291-9.896c0.051-2.811,0.537-5.431,1.504-7.918
		c2.416,0.681,4.814,1.387,7.217,2.124c-1.068,0.703-1.895,1.503-2.482,2.389c-0.584,0.887-0.879,1.778-0.885,2.684
		c-0.012,0.468,0.09,0.845,0.295,1.135c0.213,0.292,0.49,0.439,0.84,0.451c0.465,0.012,0.826-0.166,1.115-0.534
		c0.289-0.365,0.754-1.243,1.363-2.659c0.631-1.465,1.205-2.62,1.742-3.448c0.545-0.828,1.234-1.501,2.055-2.008
		c0.832-0.511,1.82-0.783,2.98-0.819c5.098-0.174,7.865,3.404,7.715,10.572c-0.092,3.668-0.84,6.992-2.191,9.911
		C408.733,171.995,406.257,171.027,403.763,170.094z"/>
</g>
<g>
	<path fill="#FFFFFF" d="M406.302,138.131c-0.311-2.862-0.668-5.743-1.107-8.633c1.881-0.286,3.766-0.566,5.631-0.855
		c0.973,6.382,1.625,12.697,1.977,18.952c-7.578,0.388-15.15,0.776-22.725,1.164c-0.309-5.512-0.879-11.086-1.734-16.708
		c1.887-0.285,3.766-0.569,5.645-0.855c0.41,2.713,0.762,5.415,1.049,8.104c0.934-0.095,1.865-0.193,2.807-0.29
		c-0.215-1.907-0.439-3.828-0.709-5.748c1.887-0.262,3.773-0.519,5.66-0.778c0.271,1.986,0.514,3.962,0.727,5.937
		C404.438,138.322,405.376,138.229,406.302,138.131z"/>
</g>
<g id="Team">
	<g>
		<path fill="#FFFFFF" d="M187.257,166.21c0.084,4.629,0.509,9.303,1.3,13.983c-8.049,1.342-16.094,2.689-24.139,4.034
			c0.497,2.97,1.114,5.938,1.849,8.907c-5.378,1.328-10.754,2.658-16.127,3.988c-3.336-13.493-4.519-27.011-3.774-40.196
			c5.529,0.313,11.061,0.627,16.586,0.939c-0.164,2.901-0.215,5.824-0.167,8.756C170.941,166.484,179.103,166.346,187.257,166.21z"
			/>
	</g>
	<g>
		<path fill="#FFFFFF" d="M180.709,136.754c1.167-4.218,2.599-8.346,4.272-12.364c3.174,1.318,6.351,2.64,9.518,3.959
			c-3.232,7.76-5.444,15.98-6.516,24.454c-13.59-1.713-27.185-3.428-40.773-5.142c1.535-12.161,4.713-23.955,9.358-35.092
			c3.174,1.32,6.348,2.64,9.519,3.96c-2.002,4.806-3.709,9.741-5.109,14.782c1.64,0.451,3.273,0.902,4.912,1.354
			c0.935-3.38,2.014-6.711,3.24-9.987c3.222,1.202,6.44,2.401,9.664,3.603c-1.12,2.993-2.109,6.036-2.965,9.129
			C177.455,135.856,179.083,136.307,180.709,136.754z"/>
	</g>
	<g>
		<path fill="#FFFFFF" d="M197.804,107.615c1.578,1.822,3.186,3.613,4.832,5.37c-2.482,3.797-4.683,7.765-6.599,11.878
			c-10.896-9.044-20.942-19.432-29.909-31.009c4.78-7.812,10.354-15.144,16.637-21.863c13.373,5.75,25.927,12.776,37.467,20.919
			c-3.438,2.947-6.644,6.135-9.601,9.518c-2.14-1.097-4.305-2.155-6.493-3.179C201.878,101.931,199.761,104.722,197.804,107.615z
			 M191.441,99.887c1.137-1.586,2.315-3.139,3.529-4.667c-3.216-1.336-6.473-2.599-9.775-3.783
			C187.213,94.313,189.298,97.132,191.441,99.887z"/>
	</g>
	<g>
		<path fill="#FFFFFF" d="M235.983,81.973c-4.032,2.224-7.866,4.729-11.47,7.478c-8.291-10.905-16.587-21.809-24.88-32.711
			c5.025-3.825,10.346-7.318,15.937-10.439c3.735,1.188,7.363,2.524,10.883,3.995c1.051-3.673,2.291-7.357,3.745-11.035
			c6.079-2.487,12.407-4.562,18.967-6.183c3.285,13.297,6.57,26.592,9.859,39.882c-4.688,1.163-9.205,2.65-13.533,4.438
			c-2.625-6.333-5.25-12.668-7.881-19.002c-1.01,3.282-1.836,6.561-2.514,9.82c-2.92-1.528-5.953-2.946-9.061-4.25
			C229.351,69.969,232.665,75.968,235.983,81.973z"/>
	</g>
</g>
</svg>
